<mxfile host="Electron" modified="2023-08-09T01:43:52.014Z" agent="Mozilla/5.0 (Windows NT 10.0; Win64; x64) AppleWebKit/537.36 (KHTML, like Gecko) draw.io/21.6.5 Chrome/114.0.5735.243 Electron/25.3.1 Safari/537.36" etag="dBQAMrVuvA47vuzD86gl" version="21.6.5" type="device">
  <diagram name="Page-1" id="HV7EP7JZoMT8vhXeRYLR">
    <mxGraphModel dx="1728" dy="1639" grid="1" gridSize="10" guides="1" tooltips="1" connect="1" arrows="1" fold="1" page="1" pageScale="1" pageWidth="850" pageHeight="1100" math="0" shadow="0">
      <root>
        <mxCell id="0" />
        <mxCell id="1" parent="0" />
        <mxCell id="SxoRCARXd7dMq28AoM7H-29" style="edgeStyle=orthogonalEdgeStyle;rounded=0;orthogonalLoop=1;jettySize=auto;html=1;entryX=0;entryY=0.5;entryDx=0;entryDy=0;" parent="1" source="SxoRCARXd7dMq28AoM7H-1" target="SxoRCARXd7dMq28AoM7H-28" edge="1">
          <mxGeometry relative="1" as="geometry">
            <Array as="points">
              <mxPoint x="530" y="295" />
              <mxPoint x="530" y="295" />
            </Array>
          </mxGeometry>
        </mxCell>
        <mxCell id="SxoRCARXd7dMq28AoM7H-38" style="edgeStyle=orthogonalEdgeStyle;rounded=0;orthogonalLoop=1;jettySize=auto;html=1;entryX=0;entryY=0.5;entryDx=0;entryDy=0;" parent="1" target="SxoRCARXd7dMq28AoM7H-37" edge="1">
          <mxGeometry relative="1" as="geometry">
            <mxPoint x="520" y="385" as="sourcePoint" />
          </mxGeometry>
        </mxCell>
        <mxCell id="SxoRCARXd7dMq28AoM7H-1" value="ESP32 MCU" style="whiteSpace=wrap;html=1;aspect=fixed;" parent="1" vertex="1">
          <mxGeometry x="340" y="270" width="180" height="180" as="geometry" />
        </mxCell>
        <mxCell id="SxoRCARXd7dMq28AoM7H-13" value="" style="edgeStyle=orthogonalEdgeStyle;rounded=0;orthogonalLoop=1;jettySize=auto;html=1;" parent="1" source="SxoRCARXd7dMq28AoM7H-3" target="SxoRCARXd7dMq28AoM7H-12" edge="1">
          <mxGeometry relative="1" as="geometry" />
        </mxCell>
        <mxCell id="SxoRCARXd7dMq28AoM7H-66" style="edgeStyle=orthogonalEdgeStyle;rounded=0;orthogonalLoop=1;jettySize=auto;html=1;entryX=0;entryY=0.5;entryDx=0;entryDy=0;" parent="1" source="SxoRCARXd7dMq28AoM7H-3" target="SxoRCARXd7dMq28AoM7H-43" edge="1">
          <mxGeometry relative="1" as="geometry">
            <Array as="points">
              <mxPoint x="60" y="400" />
              <mxPoint x="-90" y="400" />
              <mxPoint x="-90" y="495" />
            </Array>
          </mxGeometry>
        </mxCell>
        <mxCell id="SxoRCARXd7dMq28AoM7H-69" style="edgeStyle=orthogonalEdgeStyle;rounded=0;orthogonalLoop=1;jettySize=auto;html=1;entryX=0.5;entryY=0;entryDx=0;entryDy=0;" parent="1" source="SxoRCARXd7dMq28AoM7H-3" target="SxoRCARXd7dMq28AoM7H-67" edge="1">
          <mxGeometry relative="1" as="geometry">
            <Array as="points">
              <mxPoint x="60" y="400" />
              <mxPoint x="-130" y="400" />
            </Array>
          </mxGeometry>
        </mxCell>
        <mxCell id="SxoRCARXd7dMq28AoM7H-97" style="edgeStyle=orthogonalEdgeStyle;rounded=0;orthogonalLoop=1;jettySize=auto;html=1;entryX=0.004;entryY=0.813;entryDx=0;entryDy=0;entryPerimeter=0;" parent="1" source="SxoRCARXd7dMq28AoM7H-3" target="SxoRCARXd7dMq28AoM7H-88" edge="1">
          <mxGeometry relative="1" as="geometry">
            <Array as="points">
              <mxPoint x="180" y="295" />
              <mxPoint x="180" y="139" />
              <mxPoint x="220" y="139" />
            </Array>
          </mxGeometry>
        </mxCell>
        <mxCell id="SxoRCARXd7dMq28AoM7H-3" value="3.3V LDO" style="rounded=0;whiteSpace=wrap;html=1;" parent="1" vertex="1">
          <mxGeometry x="20" y="280" width="80" height="30" as="geometry" />
        </mxCell>
        <mxCell id="SxoRCARXd7dMq28AoM7H-5" value="" style="edgeStyle=orthogonalEdgeStyle;rounded=0;orthogonalLoop=1;jettySize=auto;html=1;" parent="1" source="SxoRCARXd7dMq28AoM7H-4" target="SxoRCARXd7dMq28AoM7H-3" edge="1">
          <mxGeometry relative="1" as="geometry" />
        </mxCell>
        <mxCell id="SxoRCARXd7dMq28AoM7H-75" style="edgeStyle=orthogonalEdgeStyle;rounded=0;orthogonalLoop=1;jettySize=auto;html=1;entryX=0;entryY=0.5;entryDx=0;entryDy=0;" parent="1" source="SxoRCARXd7dMq28AoM7H-4" target="SxoRCARXd7dMq28AoM7H-74" edge="1">
          <mxGeometry relative="1" as="geometry">
            <Array as="points">
              <mxPoint y="295" />
              <mxPoint y="260" />
              <mxPoint x="100" y="260" />
              <mxPoint x="100" y="105" />
            </Array>
          </mxGeometry>
        </mxCell>
        <mxCell id="SxoRCARXd7dMq28AoM7H-103" style="edgeStyle=orthogonalEdgeStyle;rounded=0;orthogonalLoop=1;jettySize=auto;html=1;" parent="1" source="SxoRCARXd7dMq28AoM7H-4" target="SxoRCARXd7dMq28AoM7H-101" edge="1">
          <mxGeometry relative="1" as="geometry">
            <Array as="points">
              <mxPoint y="295" />
              <mxPoint y="260" />
              <mxPoint x="130" y="260" />
            </Array>
          </mxGeometry>
        </mxCell>
        <mxCell id="SxoRCARXd7dMq28AoM7H-124" style="edgeStyle=orthogonalEdgeStyle;rounded=0;orthogonalLoop=1;jettySize=auto;html=1;entryX=0;entryY=0.588;entryDx=0;entryDy=0;entryPerimeter=0;" parent="1" source="SxoRCARXd7dMq28AoM7H-4" target="SxoRCARXd7dMq28AoM7H-109" edge="1">
          <mxGeometry relative="1" as="geometry">
            <Array as="points">
              <mxPoint x="-240" y="295" />
              <mxPoint x="-240" y="637" />
            </Array>
          </mxGeometry>
        </mxCell>
        <mxCell id="SxoRCARXd7dMq28AoM7H-4" value="3.7V Li-Po" style="rounded=0;whiteSpace=wrap;html=1;" parent="1" vertex="1">
          <mxGeometry x="-100" y="280" width="80" height="30" as="geometry" />
        </mxCell>
        <mxCell id="SxoRCARXd7dMq28AoM7H-11" style="edgeStyle=orthogonalEdgeStyle;rounded=0;orthogonalLoop=1;jettySize=auto;html=1;entryX=0;entryY=0.5;entryDx=0;entryDy=0;" parent="1" source="SxoRCARXd7dMq28AoM7H-9" target="SxoRCARXd7dMq28AoM7H-3" edge="1">
          <mxGeometry relative="1" as="geometry">
            <Array as="points">
              <mxPoint y="295" />
            </Array>
          </mxGeometry>
        </mxCell>
        <mxCell id="SxoRCARXd7dMq28AoM7H-9" value="5V Input Pad" style="ellipse;whiteSpace=wrap;html=1;" parent="1" vertex="1">
          <mxGeometry x="-80" y="180" width="170" height="40" as="geometry" />
        </mxCell>
        <mxCell id="SxoRCARXd7dMq28AoM7H-14" style="edgeStyle=orthogonalEdgeStyle;rounded=0;orthogonalLoop=1;jettySize=auto;html=1;entryX=0.015;entryY=0.135;entryDx=0;entryDy=0;entryPerimeter=0;" parent="1" source="SxoRCARXd7dMq28AoM7H-12" target="SxoRCARXd7dMq28AoM7H-1" edge="1">
          <mxGeometry relative="1" as="geometry">
            <Array as="points">
              <mxPoint x="340" y="295" />
            </Array>
          </mxGeometry>
        </mxCell>
        <mxCell id="SxoRCARXd7dMq28AoM7H-12" value="Filter Caps" style="rounded=0;whiteSpace=wrap;html=1;" parent="1" vertex="1">
          <mxGeometry x="240" y="280" width="80" height="30" as="geometry" />
        </mxCell>
        <mxCell id="SxoRCARXd7dMq28AoM7H-19" style="edgeStyle=orthogonalEdgeStyle;rounded=0;orthogonalLoop=1;jettySize=auto;html=1;entryX=-0.002;entryY=0.585;entryDx=0;entryDy=0;entryPerimeter=0;" parent="1" source="SxoRCARXd7dMq28AoM7H-15" target="SxoRCARXd7dMq28AoM7H-1" edge="1">
          <mxGeometry relative="1" as="geometry" />
        </mxCell>
        <mxCell id="SxoRCARXd7dMq28AoM7H-20" style="edgeStyle=orthogonalEdgeStyle;rounded=0;orthogonalLoop=1;jettySize=auto;html=1;entryX=-0.002;entryY=0.806;entryDx=0;entryDy=0;entryPerimeter=0;" parent="1" source="SxoRCARXd7dMq28AoM7H-16" target="SxoRCARXd7dMq28AoM7H-1" edge="1">
          <mxGeometry relative="1" as="geometry" />
        </mxCell>
        <mxCell id="SxoRCARXd7dMq28AoM7H-21" value="" style="swimlane;startSize=0;" parent="1" vertex="1">
          <mxGeometry x="190" y="350" width="100" height="90" as="geometry">
            <mxRectangle x="180" y="350" width="50" height="40" as="alternateBounds" />
          </mxGeometry>
        </mxCell>
        <mxCell id="SxoRCARXd7dMq28AoM7H-15" value="USB D+ (GPIO 20)" style="rounded=0;whiteSpace=wrap;html=1;" parent="SxoRCARXd7dMq28AoM7H-21" vertex="1">
          <mxGeometry x="10" y="10" width="80" height="30" as="geometry" />
        </mxCell>
        <mxCell id="SxoRCARXd7dMq28AoM7H-16" value="USB D-&amp;nbsp; (GPIO 19)" style="rounded=0;whiteSpace=wrap;html=1;" parent="SxoRCARXd7dMq28AoM7H-21" vertex="1">
          <mxGeometry x="10" y="50" width="80" height="30" as="geometry" />
        </mxCell>
        <mxCell id="SxoRCARXd7dMq28AoM7H-22" value="Programming" style="text;html=1;align=center;verticalAlign=middle;resizable=0;points=[];autosize=1;strokeColor=none;fillColor=none;" parent="1" vertex="1">
          <mxGeometry x="190" y="320" width="100" height="30" as="geometry" />
        </mxCell>
        <mxCell id="SxoRCARXd7dMq28AoM7H-24" style="edgeStyle=orthogonalEdgeStyle;rounded=0;orthogonalLoop=1;jettySize=auto;html=1;entryX=0;entryY=0.5;entryDx=0;entryDy=0;" parent="1" source="SxoRCARXd7dMq28AoM7H-23" target="SxoRCARXd7dMq28AoM7H-3" edge="1">
          <mxGeometry relative="1" as="geometry">
            <Array as="points">
              <mxPoint y="335" />
              <mxPoint y="295" />
            </Array>
          </mxGeometry>
        </mxCell>
        <mxCell id="SxoRCARXd7dMq28AoM7H-23" value="USB 5V" style="rounded=0;whiteSpace=wrap;html=1;" parent="1" vertex="1">
          <mxGeometry x="-100" y="320" width="80" height="30" as="geometry" />
        </mxCell>
        <mxCell id="SxoRCARXd7dMq28AoM7H-28" value="GPIO3 USB/JTAG Bootstrap" style="rounded=0;whiteSpace=wrap;html=1;" parent="1" vertex="1">
          <mxGeometry x="540" y="270" width="90" height="50" as="geometry" />
        </mxCell>
        <mxCell id="SxoRCARXd7dMq28AoM7H-36" value="Documentation" style="swimlane;whiteSpace=wrap;html=1;startSize=20;" parent="1" vertex="1">
          <mxGeometry x="630" y="270" width="270" height="90" as="geometry">
            <mxRectangle x="630" y="270" width="90" height="30" as="alternateBounds" />
          </mxGeometry>
        </mxCell>
        <mxCell id="SxoRCARXd7dMq28AoM7H-30" value="" style="shape=image;verticalLabelPosition=bottom;labelBackgroundColor=default;verticalAlign=top;aspect=fixed;imageAspect=0;image=data:image/png,iVBORw0KGgoAAAANSUhEUgAAApYAAACFCAYAAADhL7gWAAAAAXNSR0IArs4c6QAAAARnQU1BAACxjwv8YQUAAAAJcEhZcwAADsMAAA7DAcdvqGQAAJPnSURBVHhe7J0HWFTH9/e/7hIwBkVR0FiwoYLYEaUEEOldioBIBGNAxV6TGEskiRqTgBpL1IiF2FBRf2rssXfsDRtdKUZAKVL27ryzBbawDcSU/3s/z3OVuXPvzJkz55wpe+9uI0IBCwsLCwsLCwsLyzvCEf/PwsLCwsLCwsLC8k6wE0sWFhYWFhYWFpYG4T/xUTgvZQ/irnXEhE8Hoon4HHgPsHtpEnjesxHSW1t8kp6+l4hfHpvBV/s0bnQei0AzLXHOe4JfiDv7NmLrkRtIL9aGobE5PEePhluXaklLcXXTjzjwjBGnG4HzQTO0NbPHMF8LtKbi8e7swIpn/THdr4f4Ggb5ybuwcfsJ3M4qwQetusPSbxRGORvjI/EVAnj593H23E28QFsMcLBHT32uOOffDZN5BOsut0NkUG+8595RAYPMI+twuV0kgno3jBT1bRe/6CFOH09GNr8NBjgNRa+Wde9HJvUgfr3RGWMDzRpQpwxSD6zEpbYj0fX2ShxKq7ZhWTjtnDAhyh6GdJlamrwFsZfaYswEJ7SVX7aq9RUNYTJxZN1ltIsMQgN1nQz/Dvt8R6iub+6Kx6Hsbgia6oPu/0BoeD82+f5QJW/D2MS/1J8EvGefYvn/i//EjiWnyQsc+24jLlWIT1B4t7dj6fJf8OOWZFSKz9GzuLltKQ5nayP96Absf8gTn39PlN3GysAhiNxfhYGffoGFc6Pg0TETy72sELE9nYYRCr8E13dswd0mvdC3b1969EHPTk3wImk87DyX4S4VvvLeHqw+9FRYJFCMK0u94TztT+jYfoavv/sGUwOM8WLVcDhE7UKGqFAU/LkAXsMX4Eh6MUrS/sAcVwfMPPyS5mgOP28jRnjFIkVxfHtvkJc3cORCBu2tfxIG2Sc2YO8DifW8K/VpV/nNOPg4T0FSagnKMv/AbDcPLLpcIs5VBR95G0fAKzZFaGe89KPYsP9hA+uUR/1oNXbe5sHAuE+N/bbN3ovEpy3RW5imR/fW+FAQSfj52PPDUmyIm494ed/TxFc0hbzEjSMXkPGeDIjJPoENex9IxZX/HmVHZmPMljL07NsRzRqJT75v+HnYOMILseKA8n5s8v2hSt6GiVn/Un8S8J59iuX/MwQ7lv8MDCktLCRvGXFSFbz75FsrczL3RlX1CfLoBwfitvBb4m37DblTc/oZ+dHBhnx7v5ScnNifhO16KzxdVVFBa1NEFamoUi6A8vsEVJBr8weT/hOPkVdyF1WlrCTupqFk5yuaYHLJardeZNq5ClFmNbwnZKltdzLhz3JSujWQdB1zUHi69OwMMmDwV+T8G2FSAi+dbA40I97r0giv6i751t6R/PSIJ84kpPzCTNLP5ReSqUKfvKpqRYlgclYRN+sYck9SjFKqKqqU6oKh5SovgiFVVRpUQFHVT3Ki1wvZNlSQCzPMSciOUnFaA6oqiApzUYi8zmXgpZFf3AaT2RclMpTfWEA+cfiBPFSrMobkrHIj1jH3hLovPzmR9A/bRYQWT+WsUCZnndpQTk5O6E68NxSK0wJ45MkPdmTQ/Fu0V2ThpS4jbo6LyLGfHYn57EtUw9Vo6CvK4NH+F/+pHDU2okIn8rZdcWEGMQ/ZQVRaBkPrU1Iej9qx8u7jEVl3YAiPp6xDlMcnlXZFy8yIcyZDf0pVIYeIhpOVwuSQVW7WJEYcUDS1SVWxRRYeqahQ0SJVdq8AQdySvlxjH6pB89gm4l/iTxTVMVuKOuqUhUXAP7Jjyc/5A1/YtUcLfX00NxqKecfzVe+0cY3hbMvgwuls0XV0ZXzyLGA/fAQcGp/H8Szx+qzgNC4U28DJWPC5D0F5ynqM83aF1zB3DOpji+hE8UqOycLBOd6wHOQEd2cbDHafht2pgqVaJS4u8ER03ErF90lTcRbxu/QR9aUj9OW0qNVjDL6fZ42mb1SsG7lt0L5NOQoLpJ9EKMHR3w6g88QZsGkqPlUNtyNC5/ghZ9NWPKoshE7/EXDvIvl8i9usKZp+wFXwMQ0PqYnT4GVrB1cvD9hYuWLmviy8vRaLESErkfwgAZFuo7H2QRmufBeKBYfOYFmYDXq7LKb3luL6mgg4DXHGMH9POFg5YsKONFpipfDaOVs2Yaq/B7z9fOBiY4/gpefwStBBlVfwXegcbNk0Ff4e3vDzcYGNfTCWnnsl7D/e9UXwnXIQ5er0zcvA/q98YWvnAV8fV3hGrsTq6b74+ozU1jWFebgM/kFrkCql7orz8+E97RD9S1kbpKi8iAVe03G4XJym8O7Hwm/cHnq3wFwOYo63JQY5ucPZZjDcp+2G0FzkkLRLsc7lrYH/6jiOv3bFCAvJR1c6fUbAk38Cx56r8ohKXIsdgZCVyXiQEAm30WvxkBZOylOwfpw3rXMY3Af1gW10ItLFlWrahvrDw73NSeD6j4TDiGC0/WMTTgmUJ6CevsJLTcQ0L1vYuXrBw8YKrjP3QejqvOtY5DsFBwX9pcJGKi8ugGd0HFYq1IkGdqEAfv5pLAm2xUBbWheNHfZBP+JcoaCv+Mg/vQTBtgNh5+YGewsbBCw8jhxBXUJ/+ALrVo6Dr4cn3Gz6wWbcdlw++A3GjAzDcHdrDHScjYM54j5XGp80sSvqmz8FI+zXG7i9fhQ8Ju1A2qXvELrgEM4sC4NNbxcsvlnZcLJWU3kNsSNCsDL5ARIi3TB67QOhLpXbJIOsg3PgbTkITu7OsBnsjmm7UxXrn5+P00uCYTvQDm5u9rCwCcDC4znCdqvuY0VI+snW1ZP6gj2CfjwHYRdSlMlb49tqYlvD0dD+pCZmS/lU3XXKwiKHeIL5N0JXbdGdCJ0SCWZU9GhEtLpNI2flNvTkKT8+jpj5bSJ/CRIFCSTok6/JNbrqurvQjvisyxGuPEv2RhDzcUfoilOwMjQmBkNiyOUiwQ30/nuLiV3f6eQcXfE+W+VBBoQnkkzhEpEheccmE0vnn0kKT9V9onQ1vEeLie2g+eS2uq0UhTuWDCm8tpS4dPUkazMYyY5l1Q0y19yeLH2qZC1ZfoiMMfYnCcXitED2e6fIoR1xJNrLl8w/VSDUgwxv95GIPuEkqUCUZJ5vIv69RpP9pfRvmR3LCnJmmgXpbR1AvjqYSnVIxbn7HbG1jSF3ygX59Pq8BBLY63Ny6C29dmpv0sZyGjmSL67x7T2ywqMvGbWb9lDFGTK1dxtiOe0IkWSvIB59R5HdfzFSO0Kq+yklzomYj9lLsoXy0bYemULMW3QikX+IBaqGd598b2tPFtVs870lx6MHkVF7ilS2oWbHsvwkmdg/jIg3uIVU3ZhLLPw2kje8Z2SVxwASnpgp2lFg8sixyZbE+eeUWiv+mnap0Lk0VTfnE8uAzaSmO4WUkl0jB5GZF9Q4BNWH7I7lBGJsMITESBRJFtv1JdMFdleHNsgi6B8Nd1jeniZTLIaTBGGH/0W2BZmQ0ESRAjT2FRnekn0RfUi4RIlkk38vMlqgxIoLZIZ5CNlRqtpGVOlEuV1I9aMoSwKTSeL9+hH/9Q+F/iHwmQexzqT/5FOkLDOe+PXzJ+sfio2o4hn5PbQfcV/1lPCoP0wx+5g4L7lJSgR5vKck1sGAdAxeT9KEcleRh0vsifXCu4JM5fGpRDO7EtyT9vNQ4hibTv+iopyZRix6W5OArw6SVCoe02CyylFrx1K5/nnPVhGPAeEkUdRIqv9jZLKlM/k5Rd4iGZIZ70f6+a8nEnF/J6H93MkqGidV2r0Carf9AYl17k8mn1JtLzU2oSa2qeaf9Cd1Mbvap1T3GwuLJvwDO5ZvkZmVJ7W6I2ByMpBVJU4qQcfSCf0fn8XFMqD07ClkDnBCby0tdHe2xMtTp/GGrsiun3kAk6HWaCy8gwvz4ChY6AkT0Ok2BIO1MpFRnol9e8oQPNcfHYTbexwY0hV4KOcA9glfsFFyn5x8pOwtypvo4qOa55cqcHKuI6wsLWFJj8EDLRC185Uoi8lG4nhb4XlhngVdpc+4Bftf12KMkVQX8EtRWvEhdHWVPBTVSBe62uUoq9mw4+NVyiVcuHQbObwPUPn6jXC2LgPHAAZa93D00HXkVdJk2xCs2TcPn0jed5LAfwNtp3mI8ews1CHH0BdLfo2GmY4gk0HZmwrwX+cjT1A/qUInr8/hZCCWv7EZIqfb4FbiMWGSVHWC1+dOkGRHYrrNLSQeKxadqEFZPz3F3r2VCJzljXbCjVnaT87TMLKfcDUiC7cHQoc3xuGdol0SlJ7C7pv9EeKqp7oNGsBk7sOesmDM9e8g2g3mGMJxdig4B/ah5n0seTTUOb+kBLzGH8o96MzBhx/yUVJcq5Vq4ZoHI0qiSAwZrIVMarj1akMdKTq8Eed6jYSvsMNbwmukFa4n7IFgY6tOvlIDBwYGWrh39BCui5SIkDX7ME9aiYx6G1Gmk/rYBT9rD7bm+GB+hIk4xmjDNGollgW0QfqercjxmY8IE1EOtLsgZEEIyrbvxGOBjvm94DOqj+jlO2579OrRAn1dA9FJKLcWOvXqhreZGQKDUx6f0vQ192UZ+Hij7YR5MZ7o3JiPrIaSVQMU678cmfv2oCx4LvxFjaT94YjZoRwc2PdMuBNZAz8Le7bmwGd+BCTihmBBSBm273wsTCvrY/B5qCgvQ1kZPcoraLmK2m6KqJXLENBWtFeqtCwpNI9t9afh/YmiJmZLo4keWFiUITum/S00g3OwJ9oIgxSlERftfEMw9ENxWhm6dhja/TbO3CzB1T8fwsxpEARjgnZ/J/R7dhLnix/TvLZwsBe/N92oCVq1ohMLUYq2VAc6HAZVVdnIynmGneM94OrqKjrcP0NSiS5IEQ1pyu6T+5yD07Y9WuelSz3srAPH707i0uXLuHz5AuJ9tfG8QJxJg3PQmnP0vCDvMq5cS0byma2Y49SOTquk0OqADga5SE9X+IEQnTClI5P3MdrXvBquBdOAr/D9so3YHe+PjG/mYd9rcVY12tZYsHUujM7GINB6IKzdorD6ThWaiOK5HI3R1aSbaPJB4TT7ADmJsxDo5Q2/wDBMXnEdpY2ro5kWPu5gJCP/B126oNXLbFFC62N0MJLJRZcurfAy+y9xWozSfspHfvHH6NRBqgxOa3Rsr4va024ujIKC0epkIm5R1ZX8uQcPLUMxlOpJdRtUwCfCyQmTnYWcZzsx3kNsK/Rw/ywJJboEAnNRiIY65+g1g3ZZCWTDNR/FJVzoNddARhkaoUmrVtCTKBI6Ohww1HA1bwMPZaWCAVgKTea3/Bwkbfwfsq/GYZijIxzpMSz2Kgr+TMD2NKZuvlKDNqwXbMVco7OICbTGQGs3RK2+gyppJTLqbES5TupjF7ysTBQYmcBYuh8/6g47uy54lVkAIxPjGt8RwDXqgU4lmdRnaUJHH60kgoDDaQK9ZuLJDaURh+YRqnm6CFUan8oG18GXZWnc1QTdhNfxkNVQsqpFmf6rkJ2Vg2c7x8Ojuo2u7vgsqQS6pEjW/nhZyCwwgomM0qm/9+iEksxM+rfyPubdXYPRHh7wEByeU7Ejs1Jh2z/qbge77oKgqrwsGTSNbf8qfxKgJmbXoKEeWFiUUGM6fx8ctBu5CX8mLsLkMWMw9YcknFo3HG3UStISQ+31cfXEQRy72RGOtuLn0hpbwcnkHo4fPoHLOnTy2VJNQVx96LcwRcSmwzh69Kj4OITff/kagaZql/41cFo6wandGSSekp/JUfi5uHDpsdyEQQM47eHq1ATHdl1DmfiUBD6eJ9EJ02B3DLw6C9ajRc//VcNpbQ/r1ul49EI24PMLH+MhbPHluv04l3wFh+O8kLsoHIuvKwo8HDqIiP+k4TBl+VgsKQzFmv0HsHf3dsT/FIZeNQsAHl7mvJAJmkxOLor0WokSvJfIkZGFQU5uEfRatRCn1cBth7Z6WXgi/ZUcdNB9klqiMDZzWvshtNNZ7Lr2Csf3psF2hDUNt+raUA1tNx0o+VJxk5eXK3z2iKuvjxamEdh0uNpW6HHod/zydSCUmYumOtfq0BVtsx7gvvTrxzx6b4YhunbSYLagIRq34fVWjBw4A2drdu0IysqroPWBalmYp9vw+/PPkHhmP5KSkkTH/rNImlCMHVvugV8fX+EX4vFDwPbLddh/LhlXDsfBK3cRwhdfF19AqaONSNDULmThGhhCNz8LudJmXXYTO7dchlYrXeRn5cr4A78gG7nahmgtGMkbNaLDtRQ0LXtCjIr45N8mvQ6+LAunxrG5MDBsIFnrDRf6+i1gGrEJh2vaeBSHfv8FXwea0iWFFFwDGOrmI0tG6XwUZOdC27C1OK0Yrb6TsO3P0zh9mh4n12Ck0QcK2152cye2XKjDM5KaxrZ/kz8JUROzWVgaiH9gYingI5j4f4Xlv/2GuFk+MNboa7c4aO9kC37SYhxt7gCHZuLT0IW9YzucX7IFJdaOkN68UAi3B9yGFmHH2mRUf6kLP2sbpkbG41Fdgie3M8bM98LNLychIUV6GliKu7/NwYG/2sisijWDi57j5uGTU1MxIykdkvkGH4V09RoVV4Hor3zRyqQf2l/Zil2ZkhBRmZKIAy/7YnBHWQWQvL2YER6HG8IXU7jQM3WCY49K5P9F76WDDYfPgFE4CjN4mVsIQ1MzGAiLpMH8zC4cy+SJJ2B83N2dgKvVs1t+Hv7YcAJt3R3F6bvYnXC1ZvLLz/sDG060hbtjc/EZNXA7wi+gKXbOi8cDoXor8HjbEuxK1VIyxjWHe6gZrsUvxq7coQjpL9C+ujaIEewUt3iG+4/FAzRty6E9pyB4r4rbww1Di3ZgbXKNtSBr21RExj9SOtaq1Lk0zVzg3+0U1h+sfjSEynd8LQ63GQYPwcdVpXeQtHo3bin59iHBZIHPMGo3QTRuw4fdYax9C5eq3+rhPcGNezow6qhqwcXDrYTtKB8WAZuWetDTqz70YRURBJ2kzbjEq4evkDzsnRGOOJESwdUzhZNjD1TmS+0K1dlGqtHQLuTgGvvAC4mIPVH9tV5Uj4nfIy6ZQZ9hXkBiLE68rC6gEOfjEvDGww+96hIIVMSnlJca2pVKuDD2aSBZayFYmPLBKA4oUnDRw20oinashcQks7BtaiTi5YMw1xgicU9AIu55xCW8gYdfL/EJTVHQdlpv4vdxSK7U1Xww1DS2/Zv8SYiamK0RpbiTtBq7lQUlFhbKPzSxrB/cbk6wqnwKXXvJ8y0CWjg6oMWTUpg7mmgwmdOCxcxl8L0VDZeA8Zg6MQwugZvReWEM3HXFl2iIru33SFrSBUlhlrD2DEF4eAg87Zzw5ZNhWDp9gNQzMHVA3w0/7/oaehv8YWHrg9DwURjuPAh20+/CfcN2TDDVAscwBD9+b4TNw+wREDkZkz7zxtCxl+C07Bs4yE3SuSbRWOx3G+OcAjB20liEuLhjBXcCJjvogNO8HwaSHRgbNAVbHskPTtoYNCYK2mt8EDhuMsaHeiEsqSfGBWRg+axd+Is0gYNzY6wIDETk1Kn43McbPzaagbgII9HtTRzg3HgFAgMjMXXq5/Dx/hGNZsQhQvqZUpVw0XX8RiyzOI2JQ20wxMEdX6W44XPnpuAqKeIjh5EYcPE35DqFgKqJoroNL6vHP7pI+HRSfxwIc8GoiRMxJmg8TnX3wgBBGVoWmLnMF7eiXRAwfiom0msCN3fGwhh3uqRRjCqdy8AxRNCSOdD9xRdeoydj8hgfeC7mYeqPo9COtpFffB6rv1iF0wXVI6o0HDTvNxBkx1gETdkiejZOGZq2QXsQJn1tgj1+tvAfFY5A+wBs7zANY61VDIRlZxCf1BzBYaa1fI/bIxQj2v+BzcdL6u4rXBNEL/bD7XFOCBg7CWNDXOC+gosJkx3EFwiou42IUGUXO/FCkboFcHtiyppJKKd6cwkdh+hPXTB8mwm+nWePJj2nYM2kcsS4uyB07DiEuThjds4Y/DqrvwYxSRrl8cnLXEO7UgO3wWSVg9Mc/QYS7BgbhClbHsnsjMmjZTETy3xvIdolAOOnTqQyBGJz54VUJnmvoovtKWswqZzGZ5dQjB1H9eE8GzljfsUs4eKxbsi0fVw0PnUZjm0m32KefR10qGls+zf5kxA1MVsT+MU4v/oLrDpdIF5csbDU5j/xyzvvBx4K0u4jrbgpjLp3gYHkEaJ6UI6Xzx4jo4gLQ2MTGOmp2zbVjLK8x3iSVQwtg67o0bF57aDPlCDnyTO81PoYxl0M0UTFYFpRkI7Haa+h074bureWmn3yK1Bc9BZcveZookjs8nw8fpSFiubG6NlRj4Z5AZU4O9USa6zOY/uwEjx+kIUqwx4wbSde9VeexVTLNbA6vx3DSh7jQVYVDHuYop2uytFeDgbPLx1GppE7rERvZlBZMxDnHIyiuPNY2KcOg4rCNtSmsuAZ7qeWQt/YDB2by13FK0Da/TQUNzVC9y4G4pc3VKNU5/LwS5H76AlyiCG6mbSFRE2lODJrLormxiFE/By9PPyKYhS9FTyT2URpu2rQsA1MUQbuP8kDadUNZp1bvNtkoxZ19JWKAqQ/TsNrnfbo1r215Je3hLyjjWhoF7Wg/ZWT8hj52u3Rw1hWj/zSHKSkvABpI+UP9UJ5fNLYrtTQcLJKw0dFcRHecvXQXGFAkYVXkIb7acVoatQdXVQGYT5Kc1KQ8oKgTZ1jSW2EbX+cD+32PWBcl+Bfj9j27/AnNTGbhaUB+f94YslSf6SCVLCCgU0q+CrK1gw+MjcNh98+GyxfHQ2r5oW4unkKorb1w9ZTc1CXeeV/FX7+Yaz6Xyt89rmFzE95slTD2gjL30yDxLZ/AjUxm4WlAeF+QxH/zcKiMczbUugY26CvwreuGLwt1YGxTV8NXspSRiPo9fOAjdY5/PbzMqzechD3P3DCgmVTMKjZ/x9r7EYfdcPgAe1kX2ZgkYK1EZa/m4aIbf8MqmM2C0vDwe5YsrCwsLCwsLCwNAjs0oWFhYWFhYWFhaVBYCeWLCwsLCwsLCwsDQI7sWRhYWFhYWFhYWkQ2IklCwsLCwsLCwtLg8BOLFlYWFhYWFhYWBoEdmLJwsLCwsLCwsLSILATSxYWFhYWFhYWlgaBnViysLCwsLCwsLA0COzEkoWFhYWFhYWFpUFgJ5YsLCwsLCwsLCwNAjuxZGFhYWFhYWFhaRDYiSULCwsLCwsLC0uDwE4sWVhYWFhYWFhYGgR2YsnCwsLCwsLCwtIgsBNLFhYWFhYWFhaWBqERoYj//tfCS9mDuGsdMeHTgWgiPgfeA+xemgSe92yE9NYWn6Sn7yXil8dm8NU+jRudxyLQTEuc857gF+LOvo3YeuQG0ou1YWhsDs/Ro+HWpVrSUlzd9CMOPGPE6UbgfNAMbc3sMczXAq2peLw7O7DiWX9M9+shvoZBfvIubNx+ArezSvBBq+6w9BuFUc7G+Eh8hQBe/n2cPXcTL9AWAxzs0VOfK875d8NkHsG6y+0QGdQb77l3VMAg88g6XG4XiaDeDSPFO7WL/xoPLqWipVV/tK7Hco9JPYhfb3TG2ECzBtQpg9QDK3Gp7Uh0vb0Sh9KqbVgWTjsnTIiyhyGVuzR5C2IvtcWYCU5oK98Otb6iIUwmjqy7jHaRQWigrpPh32Gf7wjV9c1d8TiU3Q1BU33Q/R8IDQ1jk3zk/rkOh7SDMPoTfdmdkMpb2LYqA6HTfIXJ8rTjiF+/GxefvoaWQVeYe4ZjtEd36AoyS69i048HIAnDHGg3bY3uVp7w/qSjZFyRQ2WZdUAjm1Ji17xb6/DTEzfMHm4kaT+TigMrL6HtyK64vfIQFLsmB+2cJiDK3hCc0mRsiaXXj5kAp9qOicI7+7Bx6xHcSC+GtqExbedojHbrolQv/zZq9BughxPvMTawaIa8hf0r4TR5gWPfbcSlCvEJCu/2dixd/gt+3JKMSvE5ehY3ty3F4WxtpB/dgP0PeeLz74my21gZOASR+6sw8NMvsHBuFDw6ZmK5lxUitqfTYZnCL8H1HVtwt0kv9O3blx590LNTE7xIGg87z2W4S4WvvLcHqw89FRYJFOPKUm84T/sTOraf4evvvsHUAGO8WDUcDlG7kCEqFAV/LoDX8AU4QgNBSdofmOPqgJmHX9IczeHnbcQIr1ikKJ4vvDfIyxs4ciGD9tY/CYPsExuw94HEet6Vd2kXk70NM8aswY0q8Qm18JG3cQS8YlOEdsZLP4oN+x82sE551I9WY+dtHgyM+9TYb9vsvUh82hK9hWl6dG+NDwWRhJ+PPT8sxYa4+YiX9z1NfEVTyEvcOHIBGe/JgJjsE9iw94FUXPnvUXZkNsZsKUPPvh3RrJH45PuGn4eNI7wQKw4oDWOT1M7PbMSWiwWotQNSdQe7Vx8W/sk8XYdg7+/xtHsQZsbQmBlogryVPrAZfwB5NCjyS65jx5a7aNJLbLN9zNBZrwh/fuUAqylHUCgsRRZ1ZdYFjWIDk40TG/ZCNiSV4PiG40DPdrKDNS8dR1fvxG2eAYz7VLepLbL3JuJpy95iX+2L7q0/pPfxkb/nByzdEIf58fL9UUYnpoEYErkfVQM/xRcL5yLKoyMyl3vBKmI70v/GseFdxqMan1WoQ5a/HcGO5T8DQ0oLC8lbRpxUBe8++dbKnMy9UVV9gjz6wYG4LfyWeNt+Q+7UnH5GfnSwId/eLyUnJ/YnYbveCk9XVVTQ2hRRRSqqlAug/D4BFeTa/MGk/8Rj5JXcRVUpK4m7aSjZ+YommFyy2q0XmXauQpRZDe8JWWrbnUz4s5yUbg0kXcccFJ4uPTuDDBj8FTn/RpiUwEsnmwPNiPe6NMKruku+tXckPz3iiTMJKb8wk/Rz+YVkqtAnr6paUSKYnFXEzTqG3JMUo5SqiiqlumBoucqLYEhVlQYVUFT1k5zo9UK2DRXkwgxzErKjVJzWgKoKosJcFCKvc3mKL/5KpkcGkU86NiHcdp+TP8rFGWphSM4qN2Idc0+o+/KTE0n/sF1EaPFUzgplctapDeXk5ITuxHtDoTgtgEee/GBHBs2/RXtFFl7qMuLmuIgc+9mRmM++RDVcjYa+ogwe7X/xn8pRYyMqdCJv2xUXZhDzkB1EpWUwtD4l5fGoHSu3eB6RdQeG8HjKOkR5fFJtVwzJiHMmQ39KVSGHiIaTlcLkkFVu1iRGHFA0tUlVsUWgg1vzBxG7H57UlrNkM/EzHkv/qCJ3vhlMbBc/kr2m+CSZaGZPlj7h0TC8mrj1mkbkwzCTu454tBtJ9oiGCinUlymN6jYoQ65/Ky6QGeYhRDokMXkJJCJ0be24Xn6STOjuTWRd8wn5wW4QmX9LzjZ4qWSZmyNZdOxn4mg+m1yS0kHFtflkcP+J5FhtxyQr3U1JqErHpNTbDwQ6k433mo9HPFJRIXtRjc8q0GEtPbO8d/6RHUt+zh/4wq49Wujro7nRUMw7nq96p41rDGdbBhdOZ4uuoyvjk2cB++Ej4ND4PI5niZc4BadxodgGTsaCz30IylPWY5y3K7yGuWNQH1tEJ4p3RpgsHJzjDctBTnB3tsFg92nYnSpYx1Xi4gJPRMetVHyfNBVnEb9LH1FfOkJfTotaPcbg+3nWaPpGxdKL2wbt25SjsEB6HV6Co78dQOeJM2DTVHyqGm5HhM7xQ86mrXhUWQid/iPg3kXy+Ra3WVM0/YCr4GMWHlITp8HL1g6uXh6wsXLFzH1ZeHstFiNCViL5QQIi3UZj7YMyXPkuFAsOncGyMBv0dllM7y3F9TURcBrijGH+nnCwcsSEHWm0xErhtXO2bMJUfw94+/nAxcYewUvP4ZWggyqv4LvQOdiyaSr8Pbzh5+MCG/tgLD33Sth/vOuL4DvlIMrV6ZuXgf1f+cLWzgO+Pq7wjFyJ1dN98fUZqa1rCvNwGfyD1iBVSt0V5+fDe9oh+peyNkhReRELvKbjcLk4TeHdj4XfuD30boG5HMQcb0sMcnKHs81guE/bDaG5yCFpl2KdK7KGJn38MX3eT9j25zqM0Pgz8Epcix2BkJXJeJAQCbfRa/GQFk7KU7B+nDetcxjcB/WBbXRizY6Dpm2oPzzc25wErv9IOIwIRts/NuGUQHkC6ukrvNRETPOyhZ2rFzxsrOA6cx+Ers67jkW+U3BQ0F8qbKTy4gJ4RsdhpUKdaGAXCuDnn8aSYFsMtKV10dhhH/QjzhUKrJqP/NNLEGw7EHZubrC3sEHAwuPIEdQl9IcvsG7lOPh6eMLNph9sxm3H5YPfYMzIMAx3t8ZAx9k4mCOOgkrjkyZ2RX3zp2CE/XoDt9ePgsekHUi79B1CFxzCmWVhsOntgsU3KxtO1moqryF2RAhWJj9AQqQbRq99INSlcptkkHVwDrwtB8HJ3Rk2g90xbXeqWv0rg+Hz8KbgFWQig64dZm2Mgae+ii1b0gharVsLH+OQR32ZyttQeUVW599t/VYcGyil17EmwglDnIfB39MBVo4TsCNNUcsZpO84AK7fcHR4h5Gad28zkrj+GOkwAsFt/8AmiWPibPwu6Ed9Ccfajokx38+DddM34hOy1MsPVMR7jcYjfj5OLwmG7UA7uLnZw8ImAAuP5yiMq0JUjPO1xzqWBkU8wfwbKScnozsROiUSzKjo0YhodZtGzsqtJOUpPz6OmPltIn8JEgUJJOiTr8k1umq/u9CO+KzLEa58SvZGEPNxR+gKWbDTYkwMhsSQy0WCG+j99xYTu77T6YqVR56t8iADwhNJpnBhx5C8Y5OJpfPPJIWn6j5Ruhreo8XEdtB8clvdVorCHUuGFF5bSly6epK1GYxkx7LqBplrTlfDT5Us2coPkTHG/iShWJwWyH7vFDm0I45Ee/mS+acKZFaAQt7uIxF9wklSgSjJPN9E/HuNJvvpik52hVhBzkyzIL2tA8hXB1OFuwxVd78jtrYx5I54F02weg7s9Tk59JZeO7U3aWM5jRzJF9f49h5Z4dGXjNpNe6jiDJnauw2xnHaESLJXEI++o8juvxipHSHV/ZQS50TMx+wl2UL5aFuPTCHmLTqRSPltPd598r2tPVn0sFpvb8nx6EFk1J4ilW2o2bGkq/+J/cOIeINbSNWNucTCbyN5w3tGVnkMIOGJmXTdS2HyyLHJlsT555Raq/GadqnQuVJo30aaR73DjuUEYmwwhMRIFEkW2/Ul0wV2V4c2yCLoHw13LN+eJlMshpMEYYf/RbYFmZDQRJECNPYVGd6SfRF9SLhEiWSTfy8yWqDEml0J1TaiSifK7UKqH0VZEphMEu/Xj/ivfyj0D4HPPIh1Jv0nnyJlmfHEr58/Wf9QbEQVz8jvof2I+6qnhEf9YYrZx8R5yU1SIsjjPSWxDgakY/B6kiaUu4o8XGJPrBfeFWQqj08lmtoVQ9J+HkocY9PpX1SUM9OIRW9rEvDVQZJKxWMaTFY5au1YKtc/79kq4jEgnCSKGkn1f4xMtnQmP6fIW6QmO5YCXSSR6AFdSB+vSDJ3+XZy8l4etV4Jgh1L145e5JtNCSQhQXBsIuuWzSeRvn5k9oHnQj3Jo65MVW2Q17nEpuiY9Z0tsY25Iy6L9m9CIOn1+SHyVn63jY4HC/ymkZOK4obGO5ZvyekpFmR4Qr6wjX9tCyImoYlEaEK8R2SxLb2+bo5JRa6nH6iM97RYleMRQzLj/Ug///VEUvTvJLSfO1lFx8vaO5aqxvnaYx1Lw/IO66D68haZWXl0XVMNAZOTgSw1z5bpWDqh/+OzuFhGF3xnTyFzgBN6a2mhu7MlXp46jTd0FXL9zAOYDLVGY+EdXJgHR8FCT5iATrchGKyViYzyTOzbU4bguf7oINze48CQrsBDOQewT/hkt5L75OQjZW9R3kQXH9Ushitwcq4jrCwtYUmPwQMtELXzlSiLyUbieFvheWGeBV3hzrgF+1/XYoyRVBfwS1Fa8SF0dZWssBvpQle7HGU1S2g+XqVcwoVLt5HD+wCVr9/Ufg6JYwADrXs4eug68ippsm0I1uybh08k7ztJ4L+BttM8xHh2FuqQY+iLJb9Gw0xHkMmg7E0F+K/zkSeon1Shk9fncDIQy9/YDJHTbXAr8ZgwSao6wetzJ0iyIzHd5hYSjxWLTtSgrJ+eYu/eSgTO8kY74cYs7SfnaRjZT7gakYXbA6HDG+PwTtEuCUpPYffN/ghx1VPdBg1gMvdhT1kw5vp3EO0GcwzhODsUnAP7JC8CyFMXnTcgXPNgREkUiSGDtZBJDbdebagjRYc34lyvkfAVdnhLeI20wvWEPRBsbNXJV2rgwMBAC/eOHsJ1kRIRsmYf5kkrkVFvI8p0Uh+74GftwdYcH8yPMBHHGG2YRq3EsoA2SN+zFTk+8xFhIsqBdheELAhB2fadeCzQMb8XfEb1Eb18x22PXj1aoK9rIDoJ5dZCp17d8DYzQ2BwyuNTmn497YqPN9pOmBfjic6N+chqKFk1QLH+y5G5bw/KgufCX9RI2h+OmB3KwYF9z5TvQKmA09YPq65cxbaJNtB7fhzLo+xhYjoUUasuiT5FoRDeG+RmpCM9XXDQMSc7D0XFL/E4+SFeym3AClBdJqOmDdI6F2aLof3puwS/RptBZHpleFPBx+v8PNmdUUrZ6U2403cU7N7lDZqiw9h4rhdG+hrQmqlneo2E1fUE7BE5Jt6WN4GuxDFRcXIuHK1Efmk5eCAsonaKcyS8kx9oOL4KkR6P+FnYszUHPvMjICk6BAtCyrB952PRCWlU+ZEg6MmNdSwNi9Ss5u+iGZyDPdFGGKQojbho5xuCoR+K08rQtcPQ7rdx5mYJrv75EGZOg4SOqd3fCf2encT54sc0ry0c7MXvTTdqglat6MRClKIt1YEOh0FVVTaycp5h53gPuLq6ig73z5BUogtSRA1O2X1ygYfTtj1a56VLvUCgA8fvTuLS5cu4fPkC4n218bxAnEmDc9Cac/S8IO8yrlxLRvKZrZjj1I66mRRaHdDBIJcGPUUfi1BK05HJ+xjta14N14JpwFf4ftlG7I73R8Y387DvtTirGm1rLNg6F0ZnYxBoPRDWblFYfacKTUSxUI7G6GrSTTT5oHCafYCcxFkI9PKGX2AYJq+4jtLG1UFICx93MJKR/4MuXdDqZbYoofUxOhjJ5KJLl1Z4mf2XOC1GaT/lI7/4Y3TqIFUGpzU6ttdF7Wk3F0ZBwWh1MhG3qOpK/tyDh5ahGEr1pLoNKuAT4eSEyc5CzrOdGO8hthV6uH+WhBJdAoG5KKROOm8oGqFJq1bQkygSOjocMNRwNW8DD2WlFbIDe61ZvAL4OUja+D9kX43DMEdHONJjWOxVFPyZgO1pTN18pQZtWC/YirlGZxETaI2B1m6IWn0HVdJKZNTZiHKd1McueFmZKDAygbF0P37UHXZ2XfAqswBGJsY1viOAa9QDnUoyqc/ShI4+WkkEAYfTBHrNJENaIw7NI1TzdBGqND6VDa63XTXuaoJuwut4yGooWdWiTP9VyM7KwbOd4+FR3UZXd3yWVAJdUlRrYslp1Ah8RkF9PAYMzQPK8TLjBV43agkz13DM/GED9l94iId/TMFHm8MxMTFPeDmnhTlGfjkXc+cKjvmI+fFXJB5eA/Pj0/HTZfm3PdSV+UJtGyQ6l4aDZh/kIHFWILy8/RAYNhkrrpeitum9wv+25cJhlPgtcl4ZSitkdaDeNfnISdqI/2VfRdwwkV86DovF1YI/kbA9DQxdrLVvnYd0qbfgdBy/w8lLonHqQrwvtJ8XiHMkvJMfaDi+ipAaj3hZyCwwgolMpTTu9+iEksxMcVoKVX4kDHqyYx1LwyKJHn8bHLQbuQl/Ji7C5DFjMPWHJJxaNxxt1ErSEkPt9XH1xEEcu9kRjrbiZVxjKziZ3MPxwydwWYdOPluqKYirD/0WpojYdBhHjx4VH4fw+y9fI9BU8y0lTksnOLU7g8RT8jM5Cj8XFy49hsYv+FbDaQ9XpyY4tusaysSnJPDxPIlOmAa7Y+DVWbAeLXr+rxpOa3tYt07HoxeywYdf+BgPYYsv1+3HueQrOBznhdxF4Vh8XX4gF8Chg4j4TxoaU5aPxZLCUKzZfwB7d29H/E9h6FWzAODhZc4LmUGAyclFkV4rUYL3EjkysjDIyS2CXqsW4rQauO3QVi8LT6S/R4MGiyepJQoDKqe1H0I7ncWua69wfG8abEdY0+mLujZUQ9tNB0q+VHDj5eUKdzq4+vpoYRqBTYerbYUeh37HL18HQpm51E3n7x+N2/B6K0YOnIGzNVsnBGXlVdD6QHX4ZZ5uw+/PP0Pimf1ISkoSHfvPImlCMXZsuQd+fXyFX4jHDwHbL9dh/7lkXDkcB6/cRQhffF18AaWONiJBU7uQhWtgCN38LORKm3XZTezcchlarXSRn5Ur4w/8gmzkahuitWDeSydAMnMHwYRI0TxWRXzyb5Neb7vi1Dg2FwaGDSRrveFCX78FTCM24XBNG4/i0O+/4OtAU7qkkIYDgzb6dEGaLfo0QgoenVDk6behf9zHioDhWCnaEquhcWdvfBHRBXevPhGfUYC2MfqbliEtTc4C1ZaZqrYNEp1LwaRg+dglKAxdg/0H9mL39nj8FNYL8qbHT9+BvXwfhHQULZpebx2JgTPOSnY1SRnKq7Sg0jWZp9j2+3N8lngG+6v9Mmk/ziZNQPGOLbjHbwknp3Y4k3gKtT2Tj9wLl/BYwSD2Tn5QJ6TGI64BDHXzkSVTKR8F2bnQNmwtTkuhdpyXHutYGpp/SLUfwcT/Kyz/7TfEzfKBsUZb/Ry0d7IFP2kxjjZ3gEMz8Wnowt6xHc4v2YISa0dIb14ohNsDbkOLsGNtMkrEp/hZ2zA1Mh6P6hI8uZ0xZr4Xbn45CQkp0tPAUtz9bQ4O/NWmHqshLnqOm4dPTk3FjKR0SNbQfBRejUNUXAWiv/JFK5N+aH9lK3ZlSpysMiURB172xWBxIKqG5O3FjPA43BA+Nc6FnqkTHHtUIv8vei/1LA6frvoVjsIMXuYWwtDUDAbCIqkTn9mFY3TZKZqA8XF3dwKuVs9u+Xn4Y8MJtHV3FKfvYnfC1ZrJLz/vD2w40Rbujs3FZ9TA7Qi/gKbYOS8eD4TqrcDjbUuwK1VLyRjXHO6hZrgWvxi7cocipL9A++raIEawU9ziGe4/Fg9dtC2H9pyC4L0qbg83DC3agbXJNdaCrG1TERn/SOlYq1LndaH0DpJW78at6qrlEAxcgp0cdTsXGrfhw+4w1r6FS9Vv9fCe4MY9HRh1VDKDFsLDrYTtKB8WAZuWetDTqz70YRURBJ2kzbjEq4evkDzsnRGOOJESwdUzhZNjD1TmS+1419lGqtHQLuTgGvvAC4mIPVH9tV5Uj4nfIy6ZQZ9hXkBiLE7UfKZaiPNxCXjj4YdedQkEKuJTysuGsCsujH0aSNZaCAZrPhjFAUUKLnq4DUXRjrWQmGQWtk2NRHytIMyBoYc/epxehc3StsN7jgPLk6Dl7Uf91wzOtq+xY9khPJeefZbcxOY9qTAZ0F18ojalDxIQf64tBg+Q+0BUbZmmdWiDFMxL5BYawtTMgGqBwi/AmV3HkMnji21KAA93E06gVbBvzaNEH3Y3hvatSzUv3PGe3MA9HSOock3erQRsLx+GCJuWUn6pB32rCATpJGHzJR46j5kPr5tfYlJCisxmRund3zDnwF9oo8Ae3psfqBqPuMYQme0JyWMLhecRl/AGHn69xCekqMs4rybOstSd/9ScndvNCVaVT6FrL3l2T0ALRwe0eFIKc0cTDSZzWrCYuQy+t6LhEjAeUyeGwSVwMzovjIF7Hb/1Vtf2eyQt6YKkMEtYe4YgPDwEnnZO+PLJMCydPkDqmbI6oO+Gn3d9Db0N/rCw9UFo+CgMdx4Eu+l34b5hOyaYaoFjGIIfvzfC5mH2CIicjEmfeWPo2EtwWvYNHOQm6VyTaCz2u41xTgEYO2ksQlzcsYI7AZMddMBp3g8DyQ6MDZqCLY/kBydtDBoTBe01PggcNxnjQ70QltQT4wIysHzWLvxFmsDBuTFWBAYicupUfO7jjR8bzUBchJHo9iYOcG68AoGBkZg69XP4eP+IRjPiECH9TKlKuOg6fiOWWZzGxKE2GOLgjq9S3PC5c1NwlRTxkcNIDLj4G3KdQkDVRFHdhpfVAYwuEj6d1B8HwlwwauJEjAkaj1PdvTBAUIaWBWYu88WtaBcEjJ+KifSawM2dsTDGXemXJKvSeV3gF5/H6i9W4XSBZMiRwEHzfgNBdoxF0JQt4ueXlKBpG7QHYdLXJtjjZwv/UeEItA/A9g7TMNZaxehVdgbxSc0RHGZay/e4PUIxov0f2Hy8pO6+wjVB9GI/3B7nhICxkzA2xAXuK7iYMNlBfIGAutuICFV2sRMvFKlbALcnpqyZhHKqN5fQcYj+1AXDt5ng23n2aNJzCtZMKkeMuwtCx45DmIszZueMwa+z+tdxgak8PnmZN4xdcRtMVjk4zdFvIMGOsUGYsuWRzK6VPFoWM7HM9xaiXQIwfupEKkMgNndeSGWq7VUco9FY/aMp9gwfDFufEHwa6o+hA10Qq/Ml4mf2oVc0hl3MZkwo/xa2ZlbwDArDCG8rdDcZgeMDf0LsCENhOUx2Isbbip8fFD7rPgCffH4Ypj9sxBRT2QW5JmXWpQ01UB8bE6WNNT6BGDd5PEK9wpDUcxwCMpZj1q6XomvKzmFTshlGOUrK0R40CV+b7IGfrT9GhQfCPmA7OkwbC+WuWYYz8UloHhwmjoVSCJ5JH9Eef2w+jhJdW3yftARdksJgae2JkPBwhHjawenLJxi2dDoGKBrE3pMfqB6PuOg5ZQ0mldNx2iUUY8dRv3CejZwxv2KWcBNBHs3HedVxlqU+/Cd+eef9wENB2n2kFTeFUfcuMHinJ3jL8fLZY2QUcWFobAIjPfkgVT/K8h7jSVax8BcfenRsXtsxmRLkPHmGl1ofw7iLIZqoGEwrCtLxOO01dNp3Q/fWUrNPfgWKi96Cq9ccTRSJXZ6Px4+yUNHcGD076olW2ajE2amWWGN1HtuHleDxgyxUGfaAaTtd0Uql8iymWq6B1fntGFbyGA+yqmDYwxTtdDWdVApg8PzSYWQaucNK9GYGlTUDcc7BKIo7j4V96jAEKmxDbSoLnuF+ain0jc3QsbncVbwCpN1PQ3FTI3TvYkCHHfUo1bnGlOLIrLkomhuHEPHD7vLwK4pR9JYLveZNlLarBg3bwBRl4P6TPJBW3WDWucW7TTZqUUdfqShA+uM0vNZpj27dW8v9Esg72oiGdlELfilyUh4jX7s9ehjL6pFfmoOUlBcgbaT8oV4oj0/vblciGk5WafioKC7CW64emisMKLLwCtJwP60YTY26o4u6IMwvwYtHj5BdqoPW1HY6Nq/dv0xpPjLTsvCKr4cOxsZ4B/XUoK7MOrVBTHn+YzzKqkBz457oKO8DZVl4mKOLHl1byPUJg6KM+3iSR9Cqmxk6t2hgz3z5DI8zisA1NIaJkQb+8D78QN14RO2rNCcFKS8I2mg0pjTkOM+iKf8fTyxZ6o/UxDJYQeSWmlgqytYMPjI3DYffPhssXx0Nq+aFuLp5CqK29cPWU3NQl3nlfxV+/mGs+l8rfPa5hcxPebJUw9oICwsLy78NdmLJUg8YpO6Nw/nOUzGqn4LRm0nF3rjz6Dx1FBRla04x7u1ehpWJV5H+phFa9XLD2JljYVvzlQIsLKyNsLCwsPybYCeWLCwsLCwsLCwsDULDPFbDwsLCwsLCwsLy/z3sxJKFhYWFhYWFhaVBYCeWLCwsLCwsLCwsDQI7sWRhYWFhYWFhYWkQ2IklCwsLCwsLCwtLg8BOLFlYWFhYWFhYWBoEdmLJwsLCwsLCwsLSILATSxYWFhYWFhYWlgaBnViysLCwsLCwsLA0COzEkoWFhYWFhYWFpUFgJ5YsLCwsLCwsLCwNAjuxZGFhYWFhYWFhaRDYiSULCwsLCwsLC0uDwE4sWVhYWFhYWFhYGgR2YsnCwsLCwsLCwtIgNCIU8d8K4CFlTxyudZyATwc2EZ+jZx/sxtIkHrxnh6C3tvgkvfZe4i94bOYJ7dN30HlsIMy0xFkNTimubvoRB54x4rQEjqEdoiL0cPznA5DPbqTTC0Gz7ZEffwjaQaPxib7svLry1jasyhiEab7GNFWOtOPxWL/7Ip6+1oJBV3N4ho+GR3dd4bWlVzfhxwPPUEsCjiHsoibAuZ2qObvysosvx+PnQ2m1yxXAaQeniH5I23xIqm2NwPlQHx37uSDArSf0ZKotRfKWWFxqOwYTnNpKVhGlV7HpRyn9NOLgg2ZtYWY/DL4WrVGXbmNSD2DlpbYY2fU2VqqSe0IU7A2pBKXJ2BJ7CW3HTIBTW3kd8VF4Zx82bj2CG+nF0DY0hrnnaIx26wKJ9amgPA3H49dj98WneK1lgK7mnggf7QFRl6mxmQnWeP57PF7ZR8O9I1ecoxgm8wjWXW6HyKDeddIV+EV4ePo4krP5aDPACUN7tYTqmhTApOLgrzca3L/+Vf1YDZOJI+suo11kEHq/j1jyvsv/W6C6vrkL8Yey0S1oKny619mi3hkm9SB+vdEZYwPN6uYPcvBz/8S6Q9oIGv0JZENzJW5tW4WMQZPha0zbVyc/p/FRuylad7eCp/cn6KjEAMvTjiN+/W5cfPoaWgZdqb2GY7RHd4iifR3QyKYYZB5Zh8vtIhEkdRHv1jr89MQNs4cbSWI19fcDK6mfjeyK2ysPIU2xY6Kd0wRE2RvSv5TEfDH8wjvYt3ErjtxIR7G2IYyp7kaPdkOXOjnmP4ck9vbECwU6ZPl3IG93cnDQ5MUxfLfxEirEZwQTyNvbl2L5Lz9iS3Kl+ByFdxPblh5GtnYmjm7Yj4c88fn3Ab8E13dswd0mvdC3b1/Zw+RjNC65jh1b7qJJL7m83p3QguThzMYtuFhQez5ddWc3Vh9Oo38xeLouGN7fP0X3oJmI+WYqAk3ysNLHBuMP5NFQzkfJ9R3YcrcJekmXLzxM8LFKJ1VdNtfAGH3EZfVpm429iU/Rsnd12d1hwL8p17Y+MG3bCI/WDsfgkM0ygYefvwc/LN2AuPnxMv3Bl9dPn57o1OQFksbbwXPZXRrGNYeXfhSrd94GT43crT8UmBof+Xt+wNINcZgf/5BakjRlNHAGYkjkflQN/BRfLJyLKI+OyFzuBauI7UhXGFClYJ5iXbA3vn/aHUEzY/DN1ECY5K2Ej814HMjjq7WZJoL87etwPEtdRQB5eQNHLmTIya+G8puI83HGlKRUlJRl4o/ZbvBYdBkl4mzl8JG3cQS8YlNEkz1e+nvxr39NP0pDXuLGkQvIaOC21sBk48SGvXhQF4P/t1F2BLPHbEFZz77o2KyR+OT7RtYmBbazYb+8HdQdft4ZbNxyEbVDcxXu7F6Nw2m0hjr7eR+YddZD0Z9fwcFqCo4UiouUgnm6DsHe3+Np9yDMjPkGUwNNkLfSBzbjD0BQZJ3QyGYZZJ/YgL0yhleC4xuOAz3byQ7KAn9fvRO3eQYw7iP2wz5tkb03EU9b9ha3sS+6t/5QeJ+ymC+g7PZKBA6JxP6qgfj0i4WYG+WBjpnL4WUVge11csx3hJ+HjSO8EJtS9zqZ7BPYsPcBHaMU6ZDlX4Ngx1IVvPvfEivzueRGVfWJR+QHBzey8FtvYvvNHVJz+tmPxMHmW3K/9CSZ2D+M7HorOFtFKioYYX5taF6Vijyl91GYXLLarReZdq5CfEIWJnc1ces1jSjMrrpF5g+yIz884YlPSCjZ7EeMxx6j19wh3wy2JYsfyV5TfHIiMbNfSp7wGJK72o30mnaOKJZABWrLFp+g8J78QOwGzSe3qpVMUdq2t6fJlJ42ZHFKdQE8krrMjTguOkZ+djQnsy9JblBWBu/JUmLbfQL5s1x8QgPKT04g3b03kEJxWoAiuYXwUskyN0ey6NjPxNF8NpESiVRcm08G959Ijr2S6/eqFLLS3ZSE7nwlPqGYqjvfkMG2i4msWovJyYlmxH7pE8JTYzPqbEotvKoaX6gNj6T94kYGz75ISsVnSPkNsuATB/LDQ1k7qA1Dcla5EeuYe7QUSrmG/lVVQZS6lwL+Hf3II1XKlVhDlcqL6qCTigtkhnkI2VHTKQpgaL8q0yOvglSo6D5elWwmw+PR3lSEilio0q5omRlxxHnoTyRVjRnxKipE9qMQqneZTIbwaIxTjqxNltPY1T9sFxGZJNWJslvV2GTVrflkkN0PMjFQRAnZ7GdMxh4rr7+f0/PrPNqRkXuEUkpRRe58M5jYLn4kq59i6mdm9mSpvDB19CsR8v1bQS7MMCchUobH5CWQiNC1JFO+bOrvE7p7kw2yjkl+sBtE5td2TKUxnzommT+4P5l47JWcDVaRlJXuxDR0J1EZYd/BD6qo7cncyuSQVW7WJOaeipuE8Kgvy15TcWEGMQ/ZQeNobR0KqKqoUuJjLH8nanYsAa6xM2yZCzidLVq68fNO4izsMXyEAxqfP47qDZ6C0xdQbOMEwScVIOVIWT8O3q5eGOY+CH1so5FYvSJisnBwjjcsBznB3dkGg92nYXcqXVpVXsQCz2jErVRy398KAz7vDQpeSfZpBejazcLGGE/ov9PGwHsqW6sl9JtpgVP9SRjvHjYnceE/0gEjgtvij02nUCrOUga3TXu0KS9UsGPQMPDubUYS1x8jHUYguO0f2HSqWqIKnI3fBf2oL+Eo93gCtHpgzPfzYN30jfiEEhg+eG8KIKtWXdjN2ogYT3005F4O7/oi+E45iHLB36mJmOZlCztqsx42VnCdua/GJ2rgv8Lx46/hOsJC8lGwTh+M8OTjxLHn4hOKqMS12BEIWZmMBwmRcBu9Fg8EuxAq/IvJOog53pYY5OQOZ5vBcJ+2GwL3akgavB95qUic5gVbO1d4edjAynUm9gmUyLuORb5TcFCgaPCQsf8r+NrawcPXB66ekVi5ejp8vz6DCjWxo/T6GkQ4DYHzMH94OljBccIOCDa/VMHPP40lwbYYaOsKTxqn7IN+xLlCcQyszrNzg5u9BWwCFuJ4jqCuSlz5LhRfrFuJcb4e8HSzQT+bcdh++SC+GTMSYcPdYT3QEbMP5gjLURoLKZrYVeWVnxAc9itu3F6PUR6T8PuBGIQuOIQzy8Jg09sFi29WIv/0EgTbDoSdmxvsLWwQsPA4RKJewXehX2Ad1ZmvhyfcbPrBZtx2XD74DcaMDMNwd2sMdJyNgznyW3a1bfIhLY+Up2D9OG+4eg2D+6A+sI1OrNmdblCbrLefEzTSao3Wgsc45GD4PLwpeCX1qRxF1w6zNsbAUxyQlbWh8sp3sjq/dkVis6XXsSbCCUOch8Hf0wFWjhOwQ6HhMUjfcQBcv+HooHZEVoGKmF9xNh679KPwpaO+3MeUWugx5nvMs26KN3L2JaC+fnBxgSei46gfeFOfHuaOQX1sEZ2YDqbyGmJHhGBl8gMkRLph9NpbuEB9ZsGhM1gWZoPeLosFBeP0kmDYDrSDm5s9LGwCsPB4DtWSMhhkHZwDb8tBcHJ3hs1gd0zbnSrcQa/VPzfra3gsdUI8wVRBOTk+zoz4bfpLmCpICCKffH2NVFXdJQvtfMi6HMH6oITsjTAn447Q1aBghWVsQIbEXCZFwjvKyb3FdqTvdMHuHo88W+VBBoQnkkzhYosheccmE0vnn0lKqar75BCsSl07E7+lu8nevXuljv3k1MMi4Y6ca2c/snS3bN751HK6pNFgx5LK9Twpmgzo0od4Rc4ly7efJPfypLfxBDuWrqSz31KyW6b+vWT/qYdi+ZWhrmwJmu5Y8orTyamlvsTcbz15Jm7W29NTiMXwBJIv6J6/tpEgk1CSWCDKU7hjyRSSa0tdSFfPtSSjDks+zXe63pLTUyzI8IR84Yryr21BxCQ0kQhF4j0ii23pCvy2qr0ZNTDPSVL0ANKljxeJnLucbD95j8h2mWqbEeZruGMpWTW/Jfsi+pDwpGrFPieb/HuR0fvltsCqbpL5lgFkc7E4LaZ010gyaOYFcUoZtXcslfoJ7xlZ5TGAhCdmina5mDxybLIlcf45RXY3RgH/ZD++3RdB+oQnicoQ+Mcmf9Jr9H5SKrWjyEuJI07mY8jebFFLmLwjZIp5C9Ip8g9SrkonNE59Z2tLYu6IjYHqJCGwF/n8EI1VynYsmUwS79eP+K9/KNqFoxHoQawz6T/5FClXkPfs91DSz30VecqrIGemmJGPnZeQmyWCPB55GutADDoGk/VpIrmrHi4h9tYLhXlKYyFPQ7uiMGk/k6GOsSSddkbFmWnEorc1CfjqIEmlwjGZ8cSvnz9Z/1AkKal4Rn4P7UfcVz0lvIozZIrZx8R5yU0avSm8pyTWwYB0DF5PRKJWkYdL7In1wruChBzyO5YTiLHBEBJzWRz5yu+RxXZ9yXSBL9XBJjXZsdTMzzsSr282kYSEBOGxad0yMj/Sl/jNPkCeK4htzPMkEj2gC+njFUnmLt9OTt7LoxYkhYo2lMnpXGJTVeTud7bENuaOuCzavwmBpNfnh6jdyO22Vd0gC/ymkZO1u1egXI13LJXHfB55tNiWDJp/WyS/ptTbD8rJyQnGxGBIDJGYxGJi13e6aMyR2bGkPjPNgvS2DiBfHUylZTEkM96P9PNfTyRm+zsJ7edOVj3lKdyx5D1bRTwGhJNEkSPR7jlGJls6k59T6PXy/cPyt6DB+kgHlk798fjsRZTR9c/ZU5kY4NQbWlrd4Wz5EqdOv6HLgus488AEQ60bi27hmiM4ygJ6woQOug0ZDK3MDFQxmdi3pwzBc/3RQfi8LQeGdFUcyjmAfal0PaLsPmFaDlKBvJQbuH79uszx4MVbCNZTpCIPKTek827gcb6mz2Nw0NZvFa5c3YaJNnp4fnw5ouxNYDo0CqsuvRKWL1gBV+Sl4IZU3cLjwQu8lV/ky6BJ2aphsnYgynogBg4UHRaD7fDptlaYtjQCXYQ7lkU4vPEceo30hYGgh1t6YaTVdSTsyakpn8lOxHhbS1haCo7BsBjkhBm37PHr2jEwepdVszKKDmPjuV4Y6WsgXDG39BoJq+sJ2CPYESFleFveBLofSfYbKk7OhaOVWL7BtI1RO8U5SuC0hd+qK7i6bSJs9J7j+PIo2JuYYmjUKlx6JW61GpupOxwYGGjh3tFDuJ5HbYvKELJmH+Z9UvNGmwh+CUp4jSF8PFEKzocf0qxicaoOKPGT8sx92FMWjLn+HUQvUXAM4Tg7FJwD+2q9yFZv3kM/cgwMoHXvKA5dz0OlwD9C1mDfvE8g0SKDp3v3ojJwFrzbibbkOYbOmDayn8ANRSiLHVQHvkt+RbSZjjCHKXuDCv5r5OfJfmIgDT9rD7bm+GB+hAlEEU0bplErsSygLSoV5HUJWYCQsu3Y+VigZD56+YxCn48EeVy079UDLfq6IrCTSG6tTr3Q7W0mFURFLHxGNLOrWvDxRtsJ82I80bkxH1l7tiLHZz4iTMRxWbsLQhaEoGz7TohE7QWfUX0gErU9evVogb6ugRCJqoVOvbrhLdWhJnDNgxFlIdI+dLphyGAtZGZU0WY2sE1q5Oc8vMnNQHp6uvDIyMpGXlExXj5OxsOXtT2d09YPq65cxbaJNtB7fhzLo+xhYjoUUasuQVCk6jZI61xYnBjan75L8Gu0GbVGClOGNxV8vM7Pk90ZpZSd3oQ7fUfB7p1eoFEV8wnK3pajie5Hkh3dipOY62hVE/8HWkRh5ytxnph38wMuzIOjIDGJIRislQlqErXhv4G20zzEeHZGY34W9mzNgc/8CEjMNgQLQsqwfedj0QkZGGTu24Oy4LnwFzkS7R5HzA7l4MA+wcu1yvqH5X0i6gk16NoNRffFZ3CzRBd/PjSD0yBRkO7v1A/PEs+juNdN3GzrgK8EEYoaTqMmrdBK6vVkjo4OOEwV+Ew2snKe4ex4D5yUGmQrS3XhWsRXfp84LQNHH4NHL8C3CoItP0+QPRijF3yLWtk8Dho14oNRENR49GSjRtT1yl8io0Ab7duawTVccMykueVI2/8VgsMnouW5BDjQwKE/eDQWfCs9AGqA2rK3IqS1lHIUwO0QgnUXY6XaxkfurnAMGbsSlsemonN+Ejb+Lxup6cPguEJ0BZNXgORn25E2ejo60zS3fRDWnJMuQzN4ZaVgdD6CTvVH7jUjuyr4yEnaiP9lpyJ9mCNEIjHIK0jGs+1pGD21Ldq3zsMtwRPvXUUF6zh+h5P0EMDc/xZ2swuEfyuj/GUGCrTbo62ZK8IFh1Ctadj/VTDCJ7bEuQQHlTYjNJo6ow3rBVsxd3ksYgKX4TnTCmYuY/H1l13F+WI4emimXYYSuaDKLy4BV6+5OKU5yvykKjsLOc/OYrzHSeGkT0QlSnVdUSSK9TX8m/pR23oBts5djtiYQCx7zqCVmQvGfv0lJFpkkJ9fjI8HdZBqAgetO7aH7kNRSmns4DTDBzmrMSswGS9JY+i2aIsWpY1VPhrBy8pEgZEFjKWj40fdYWdHtXn+19p5XCP06FSCI5mCj9l0oN9KT6J/DgdN9JqJB19KIw7No7pWGQu5mtmVAhp3NUE3oWw8ZGUWwMjCWCbIc416oFPJEYhE1ZfVGacJ9JpJRt9GVHYQTWZ/jdCkVSupb6TgQEeHA6aKxtk62CQ4jdCIz9DelodH4zXNE4ZmTfy8BcxHfom5Mn5eiXvfOWDkTy649qO1VMwux8uMAmi3bwsz13DhISpyP74KDsfEluewuZ3yNrymg5NE59Jw0OyDHKyeFYjklwSNdVugbYtSNK5leK/wv225cJgn/oYJXhlKGR18JHFMzTwzR1XMn4q27Vsj75bghcOuIpXrOOK7k/QQXngf39rNRgFPMNJKWvgufmDZqAlayfiBDnQ4DKhJKKAxupp0E7c/C5kFRrCQLRhGPTqh5AhdkNWCQXZWDp6dHQ8PWUeCrmuR0JYU9w/L+0SqJ1TQcijs9a/ixMFjuNnREbbilVVjKyeY3DuOwycuQ4dOPluqK42rD/0WpojYdBhHjx4VH4fw+y9fI9DkA/FF7xmOAdrov0R2tvyzFjxkZuZBv01r8O6vQMDwlaJVfQ2N0dn7C0R0uYurT+Tv1Zz3UzYHbTwDYZl5BdcrGDzd9juef5aIM/uTkJQkOvafTcKE4h3Ycq/+sgOvsXXkQMw4K1lzk7JyVGl9oHqFwjzFtt+f47PEM9gvlicpaT/OJk1A8Y4tuMdvCSendjiTeIrWIA+dNF+4hMcKt62r4eH+igAMX/lYdlBq3BneX0Sgy92reIcuUw6/EI/pxMb2y3XYfy4ZVw7HwSt3EcIXXxdfIEarA7q2zcKD+9I75jx6bwYMu3YSp98drr4+WphGYNPhat+ix6Hf8cvXgTCVmUv/m/qRj0KRErFu/zkkXzmMOK9cLApfjOs1fcZFu7Z6yHoi/TVIdEB5kooSNaMuk7IcY5cUInTNfhzYuxvb439CWK8PxbmK4RoYQjc/C7nSxlR2Ezu3XEBRSwV5/AJk52rDsLVgyBZNgCTQtKJprKpY2KNUM7tSAEcwGRTChYGhLvKzcmV8gl+QjVxtQ4hElZNMILgCUd8FzW1SEJrbQP9lNmqH5kxk5umjTWvyDn6uDeP+pihLS5P9BIx3HysChmOlbECmRXrji4guuHv1ico2CIYtic6lYFKwfOwSFIauwf4De7F7ezx+CusFecvjp+/AXr4PQsRfcfZ660gMnHFWsqtJylBepYUPVDummpjPR0snJ7Q7k4hTtR0T/NwLuKQgwL6bH9QFutiqMVsDGOrmI0u2YBRk50LbsLU4LQ0X+votYBqxCYer+4Yeh37/BV8HmgoXEAr7h+W9opnGOe3hZMtH0uKjaO7ggGbi09C1h2O781iypQTWjtK7CUrg9oDb0CLsWJtc8zUr/KxtmBoZj0cNHNCUwjGEh38PnF61GSll4nMU3vMDWJ6kBW8/U2iZOcP29Q4sO/ScDv8SSm5uxp5UEwzoXv/lz3srm67iOzQvwl8FN5CwvRzDImzQUk8PetWHvhUignSQtFn6q6PqyofobqyNW5dED0YLJkdPbtyDjlFHlbu2vFsJ2F4+DBE2LSXy0EPfKgJBOknYfImHzmPmw+vml5iUkAKpbkHp3d8w58BfaKNSLVowc7bF6x3LcOi5jFZxc/MepJoMwDt0mXJIHvbOCEfcDeHbJeDqmcLJsQcq8/8SpiU0g4t/N5xaf7Dm60v4Bcex9nAbDPMwoKlS3Elajd23FH/5kCAw8hlG7c4Ft4cbhhbtwNrkGu9C1rapiIx/JDdf+Df1I0He3hkIj7shfBmKKhGmTo7oUZmPv2rGFi46+gWg6c55iH8gKrXi8TYs2ZUKLTVxg3mZi0JDU5gZiKITv+AMdh3LBI+vcOtECNfYB15IROyJl1SDAqgeE79HXHIl9LrL5wGF5+OQ8MYDfr3qYGSqYiE0tStVcGHs4wUkxuJEzce/hTgfl4A3Hn6oi6iKaHibFIRmD/j3OI1Vm6Vth4fnB5YjScsbfqaN6+/npQ+QEH8ObQcPkOweC9Ayg7Pta+xYdgiyRd7E5j2pMBnQvU5tqIF5idxCQ5iaGYjGRTrpOrPrGDJ5gi+rq4aHuwkn0CpY/PE15cPuxtC+danm5Sbekxu4p2OEjqodU23M53Ueg/leN/HlpASZcY86Jn6bcwB/KQiw788PBBNJwaeGCqyHawyR2Z6AxGzPIy7hDTz8eolPSMNFD7ehKNqxFpLuycK2qZGIrzWpUB1nWRoODafyXHRzskLlU13YO4merRLRAo4OLfCk1ByOJppEKi1YzFwG31vRcAkYj6kTw+ASuBmdF8bAva7fRMtkI3G8rfgZEclhPWwprqp8lJIDo9Gr8aPpHgwfbAufkE8R6j8UA11iofNlPGb2oe1obIeYzRNQ/q0tzKw8ERQ2At5W3WEy4jgG/hSLEcI3CxlkJ46HrVz9ltbDsFSVABqVXQ/o5N+oTSZubf8NSc2DEWYq3x/UAUNHoP0fm3Fc3evhStHGoElfw2SPH2z9RyE80B4B2ztg2ljpj5bkKcOZ+CQ0Dw5DbZF6IHREe/yx+ThKdG3xfdISdEkKozr0REh4OEI87eD05RMMWzodA6Se21NEY7sYbJ5Qjm9tzWDlGYSwEd6w6m6CEccH4qfYERB1mRqbUZhvgxGr7gvrqAXXBNGL/XB7nBMCxk7C2BAXuK/gYsJkB/EF1XBgGLQEc3R/ga/XaEyePAY+novBm/ojRgm+SJ9fjPOrv8Cq0wVSg041HDTvNxBkx1gETdmCR7IbK7JoWWDmMl/cinZBwPipmBjmgsDNnbEwxl3ui57/Tf3IhUn0YvjdHgengLGYNDYELu4rwJ0wGQ6iJ26EcLuOx8ZlFjg9cShshjjA/asUuH3ujKZc1f6iPWgMorTXwCdwHCaPD4VXWBJ6jgtAxvJZ2PmitraFcHtiyppJKKd6cwkdh+hPXTB8mwm+nWcPHZm8sRhHdew8Owdjfp2F/pqEwBpUxEI9Te1KNdyeU7BmUjli3F0QOnYcwlycMTtnDH6d1V/1zrRaZG1SbrNPFo1tksIxwujVP8J0z3AMtvVByKeh8B86EC6xOvgyfiZEobkefj7YAgM++RyHTX/AximmooleDY1hF7MZE8q/ha2ZFTyDwjDC2wrdTUbg+MCfEDvCsG5tqEZ7EMZEaWONTyDGTR6PUK8wJPUch4CM5Zi184XomooL2JRshlGOklK0B03C1yZ74Gfrj1HhgbAP2I4O08bCWsXEsuxMvPqYX6IL2++TsKRLEsIsreEZEo7wEE/YOX2JJzT+TR8g9fxlNe/LDzjN0W8gwY6xQZiy5ZHs7jOVueeUNZhUTv3AJRRjx1G/cJ6NnDG/YpaSgrUsZmKZ7y1EuwRg/NSJ1M4DsbnzQmr3cr2jMs6yNCRqfnnnfcFDQdp9pBU3hVH3LjD4hx6q5Ze8wKNH2SjVaQ1jk45oXstuGZTmZyIt6xX4eh1gbNy6br8copL3WfZ7hilCxv0nyCOt0M2sM1qoCyR1pPzlMzzOKALX0BgmRnpyA4EamFLkZ6Yh6xUfeh2MYdz6b9BqRQHSH6fhtU57dOuuqh/5KM19hCc5BIbdTNBWVzIpKj0yC3OL5iIuRPy0uxz8imIUveVCr3kT9frgFSDtfhqKmxqhexcD2R0aaf5V/ViBgvTHSHutg/bdukO+25jnl3A40wjuVu3E5fCREeeM4KI4nF/YR81EqRz5jx8hq6I5jHt2hJ6mBsUvRU7KY+Rrt0cPYzk9CvNS8IK0QQ/TdpDqyjqiIhZqbFeq4ZfmICXlBUibHjBtpyu1MfBuvBebFMJHyYtHeJRdCp3W1HY6Nq/dv+/Bz5nSfGSmZeEVXw8djI1r2WDd2iCiPP8xHmVVoLlxT3SUN7yyLDzM0UWPri3k+oRBUcZ9PMkjaNXNDJ0b3jHx7HEGiriGdNwzUu8P78UP+KgoLsJbrh6aN1EkAI2VOSlIeUHQpocp2mlQMK8gDffTitHUqDu6/FOTChYh/9DE8v82FWeWIHz5VdTat2zUBNbT4zHTRtXnGv80FTizJBzLFey6NmpijenxM/HPiP9vlasB4Ofj8Kr/odVnn8NC+Iouizz8zE0Y7rcPNstXI9qqOQqvbsaUqG3ot/UU5gi2slhYWFhY/hWwE0sWFpb/BMX3dmPZykRcTX+DRq16wW3sTIy1bVO3HW0WFhYWlvcKO7FkYWFhYWFhYWFpEBrqcRsWFhYWFhYWFpb/z2EnliwsLCwsLCwsLA0CO7FkYWFhYWFhYWFpENiJJQsLCwsLCwsLS4PATixZWFhYWFhYWFgaBHZiycLCwsLCwsLC0iCwE0sWFhYWFhYWFpYGgZ1YsrCwsLCwsLCwNAjsxJKFhYWFhYWFhaVBYCeWLCwsLCwsLCwsDQI7sWRhYWFhYWFhYWkQ2IklCwsLCwsLCwtLg8BOLFlYWFhYWFhYWBoEdmLJwsLCwsLCwsLSIKiZWBbjcvw3mDdvnsJjwa9nkM8XX1pfmFQcXLUb93ni9L+Z/5KsdYJB5pE1SLzbgA1j0vHHqkQoK5LJPII1iXfxPlT5Pstmed+8qy0ySD24Crv/7zmpUt6HvdeUyWTiyBrlfqyIipvbsObEC3Hq74KHW+uWYFdmfQckKburR5v/Mf5Lsv4fhkk9iFW777+jD/7fiV1qJpYfwMC4D/r27UuPPmibvReJT1uitzBNj+6t8eG77nny0nF0w348/Ffqko+8jSPgFZtCu5zy3mWVq+9vg+DljSO4kNGADaMB79iGvXhQKU7LQV7ewJELGdQRG77NTPYJbNj7AEqqZvlXwyD7xAbsVWY4CuDnbcQIr1ikiJwU6Uc3YP8/FFBkZfl7eB/2XlMmk40TKvxYEeW3dmHDqb95YllyHBuOAz3b1XdAkrK7erT5H4O8xI0jF6AydPPzsHGEF2L/TqP8v46cTnnpR7Fh/8N3nFi+j9j1z8wp1HhhY3S180dgYCA9/OFs2hLNuzvAX5gOhP9QEzQVXMZU0gAkvEE9fB54SheVPFRWKsnkVdbzPlqf+M/a0PuUFyqEvC1CYamixtVXVmkYgXgyKK9PDpV18Gm5KsoQ9IFMthbM5+zHcq/G4rQYWodytdbF+GvLo2U+B/uXe1ELq0OblcCrFExP3wXldsDUqZ2aobxM9fZYA6PKrqUR6F5Zmarr41VWaqbXBrXFekDeoqiwVGHgVNUGje1GY3+mKJWlDn0rQJXv1cfeG0LPKlHTvrqMESpQ3J985O9LRIHzSJhyxacEvPc2q4ZP/by+1SvvY7kxQ8scc/Yvh0zorhUbCN4WFUJRiFVpSypsUNA2ZfdpLLvGMHSsfR8dqUIetT6vXKeq9FYX31Ueu1Tp4x3mFA3IO+038vNPY0mwLQbaucHN3gI2AQtxPEdxA2qutXWFp7MN7IN+xLlCsdpIOVLWj4O3qxeGuQ9CH9toJKaLyim9vgYRTkPgPMwfng5WcJywA2kCxVVexALPaMStVHwfL2M/vvK1hZ2HL3xcPRG5cjWm+36NMxU0k8nCwTnesBzkBHcqy2D3adidKm9hlbgWOwIhK5PxICESbqPX4oHgEhWyMlkHMcfbEoOc3OFsMxju03ajVrECeKlInOYFWztXeHnYwMp1JvZlva1dX9kVfBe6AIfOLEOYTW+4LL6pQh+Ca+dgy6ap8Pfwhp+PC2zsg7H03CuhcVZe+Q6hc7Zg01R/eHj7wceF9kHwUpx7Jcjl4foiX0w5WE7VugCe0XFYOc4brl7D4D6oD2yjEyFqIg8Z+7+Cr60dPHx94OoZiZWrp8P36zMQqLUWhIesPTPgT/U/TE4e3vVF8J2yF+cV6bga5iGW+QdhTaqUTVWcx3zvaThUXIrrayLgNMQZw/w94WDliAk70mQDqsBGvKbjcLk4TeHdj4XfuD0oFSSU2gEPqYnT4EXb6erlARsrV8zcl0VdVg0q61NRplI5KnHlu1AsOHQGy8Js0NtlMTWdREzzonZN7c/DxgquM/chS5Fg/HycXhIM24G2tJ+cqe6D8OO5QlGgKr2ONRFOGOI8DP6eDrBynIAdIiPCxQWeiI5biXHe1DaHuWNQH1tEJ6YrbPv7sUUx/MdYETgS6zOkztFyv/Wfjj+KxWlK5bVYjAhZieQHCYh0G421IidFecp6JW1gkHVwDrwtB8HJneplsDum7U6VtRsxyvy58t4KBLjNwZ+F4gtLr2KRtw++3bS4tix16FvVvqeBvcuhWs+CvvbCdFljRazfOOwROoeG8HNx/Bt/2H7iBj9fd7gEzsEfuZI+UzZG8DN/Q2jgL3hUbVhFSRjb3xmLb1a3qAxHZrjhi5Nv1Nskk44dB7jwG94BvPfeZlVliPp0zpZNmOrvAW8/H7jY2CN46TlIm3Y1wv5ZcAhnloXBprcLbXuFcttUOGZQDfCuY5HvFNDQrTg2vL2G2BEhWJn8AAmRbhi99gEtT7ktqbZBOoE/vQTBtgNhS2O6M21b0I/nIBrGVfiVMtnVURPD7ODmZg8LmwAsPJ4j7PfaupP1BEE7vKYfhqSXeLgf64dxgo5WIY9GY3ilIp0KpgYpWK9Qb5rHHJWxS4U+FLdJwZxCcaUND9EYHnnygx0ZNP8WqRIkmUwS79eP+K9/SN4K8yvIs99DST/3VeQpT3hCgoJrH8Q6k/6TT5Hy8pNkgrEBGRJzmRQJ88rJvcV2pO/0c6Si6i75ztaWxNwpF+YQJo8kBPYinx+ipai6j5dC4pzMyZi92VRq0X1HppiTFp0iyR/lPPJslQcZEJ5IMkUNIXnHJhNL559JirzcNC9nlRuxjrknKkdlnc/IKo8BJDwxU6yfPHJssiVx/jlFdK8Ub/dFkD7hSaRAmGLI803+pNfo/aRUvr6KM2SaRW9iHfAVOZhK26xKH/Taqb3bEMtpR0g+I8p+e28F8eg7iuz+i6HZU0nvNpZk2pF8Woswl9xb4UH6jtpN/mIqyIUZ5iRkRylt4gRibDCExFwWtZCU3yOL7fqS6ecqCC8ljjiZjyF7s0UtYvKOkCnmLUinyD+oJuSg8kzp0Yr0HbeLiC+XlefCDGIesqN2m2Xgkfvf2xL7RQ9r8t4ejyaDRu0hf939jtjaxhCJKhJIYK/PiVAV1WXT/prYP4zsEhmdkKobc4mF30byhpao1A5K9pGIPuEkSdRBhHm+ifj3Gk32l4rSSlFV31tlZaqyxwpyZpoF6W0dQL46mEp77C3ZF9GHhEsKIZv8e5HRtQRjSGa8H+nnv548FMtS8SCWOPefTE6VV5G739kS25g74j6j9SUEkl6fH6Kll5OTE4yJwZAYIun+xcSu73RCu1+W926Lb8ijpQ5kyPf3a/q+/NQUYh2RJPY9CUzOKuJmHUPuCS9U3Qbes1XEY0A4SRQpm4p9jEy2dCY/yzu/Sn9+S24sGkLl3UWe8wrJyWmDiM28i6RYcJmMLHXpW4H5KPe9Kk3sXZRVg2o9Uz1N7E/CZI2VzLXwIxvfSJVZcYHMMA8hNDQogCHZG/1I34B48kRsHxVPN5LPehqSPnOu0WwVY0TFPRLziROJSxNJVrJ/DLHu248Mrfb18uMk2nwkSSxSb5NVNxYQv2knhe2vf5slMZA2XkWbVZdxZmpv0sZyGjkiMXyywqMvGbX7L1Faiooz04hFb2sS8NVBIgjvqmxT6ZhRI6uK2MDkkFVu1iRGZJQqbUmVDTKZ8cSvnz9ZLwkqJNa5P5l8qrx+sgvTylAQw579TkL7uZNVdIIhrzt5yk9OJP3DdontTkAVuTHXgvhR41YqTx3GcHmdqhw3NY05KmOXan1oPKf4m6j3jiU/aw+25vhgfoSJ8ONMQBtdQhYgpGw7dj4Wzf6rUXStadRKLAtoK5q1c80RHGUBPWGeDroNGQytzAxUcQzhu+RXRJvpCHOYsjeo4L9Gfp54f0zJfeVP92JvZSBmebeD8JMRWo7ztJHoR1cDgmf/9u0pQ/Bcf3TQEmbC0HE2QjkHsO+ZrNwKUVZn5j7sKQvGXP8OEBVrCMfZoeAc2Af5YjkGBtC6dxSHrufR9S8HbUPWYN+8T6hWasN/ow2neTHw7Ew1p0YfpKoTvD53goG4VxubRWK6zS0kHhNs8RBUdfLC504G4m3qxjCLnA6bW4kQZkvBNQ9GlIWohdDphiGDtZCZUY6ne/eiMnAWvNuJPm/iGDpj2sh+gqKV0BG+44ZBfLmcPJrARY/Q4Wh8eKd4pVWKU7tvon+IK1oY+mLJr9EQqYJB2ZsK8F/no9o01KLKDtL0YaB1D0cPXUdeJc1pG4I1++bhE0UdpCkcA8VlctXYI/8NtJ3mIcazM+0xDgwMtHDv6CFcFxWCkDX7ME9eMH4W9mzNgc/8CJiIPyLTNo3CymUBaMuj5fsuwa/RZtR6KUwZ3lTw8To/T7zrzIV5cBQk3T8Eg7UykVElStfw3m2RC+ORI6B3aCtuCPu+DKcTb6Af7XuxaCpQ1gYGmfv2oCx4LvxFyqbNcMTsUA4O7HsmWvmLYVT6c2P0n7Ue0UULEf5ZBGY/DMXauVbQFd4phbpYI9O3IhT7XhWtvj72rrnPawKfV4HysjKU0aO8QiB/Pg7uSofLjJEwFpugdtdQfObWSlifyjHimTGGOVXg5NE88KnlXf0zC1YLPkPTi8fxnC/YFDqC69084SRUhSqbpHax6Q76jrJDE2Hue26zOkgVOnl9DieJ4SNyug1uJR4TpWXg4422E+bFeKJzY9W2SdSOGRrGBoo6W1JsgxXI2rMVOT7zESEJKohauQwBbSveUXYFKIphXUKwIKQM23c+FlwgpTtRvqYoG3+5dRjDFaFs3NQ05ohQYusVqvVRlznF34HY+usOLysTBUYmMBbpSgTXCD06lSAzU3a/VeG1H3WHnV13fET/bNSkFVrpSUTh6OiAw1SBz2mGD3ISMSvQC95+gQibvALXSxujkfg6ZfdV5eej+ONO6CD1vA2ndUe016V3MtnIynmGneM94OrqKjrcP0NSiS5IkXrrUVpndhZynu3EeA9xmfRw/ywJJboE8sVqWy/A1rlGOBsTCOuB1nCLWo07VU1ExixP464w6SbOUaMPaH2MDkbSDxl9gC5dWuFl9l/ClNbHHSCb3QVdWr1E9l/SAjZCk1atIGkiBzo6HDBVVcjPL8bHnTpQ06+Gg9Yd20OgVoVoGaFrV+lWycqjCVyjIAS3OonEW9SmSv7EnoeWCB36EVXFB8hJnIVAL2/4BYZh8orrKG2sTBAp+EQ0D1ZlB2WDsWDrXBidjUGg9UBYu0Vh9Z0qNFHYQWqork/bWnGZjdTZY2N0Nekmtg1tWC/YirlGZxETaI2B1m6IWn0HVfKC8bKQWWAEE1mHQ3c7O3T/iINmH+QgcVYgvLz9EBg2GSuul6JGdY2aoFUrPUlg4OhAh8OgSv6jvL/BFjltabld/8Tv58pp35/ArpTBCB0imj6oRGkbGGRn5eDZzvHwqNa1qzs+SyqBLimSnViq82ctY4R/4YbsHbcxaEYkzBRFcLWxRrpvBSjzPX697V0zn6+GD6J0kcjD3TWj4eHhITw8p+6gl+cg++XH6NJVuvFaMDbuKIwRqscIwNTXAW9OHEdh5S2cSOkGVxdP2PHP4OSrStw5eg0dvegCUnCPKpt89T9sy3XAqN6SSt5rmxUiXYYWPu5gJBUjBdV3QauX2eKULI27mkAU3lXbJlftmKFhbKCotiVlNliJrMwCGJkYS9UpGMbtYNe98TvKrgCFMYwLox6dUCIwHopEd5rBF3eSsvG3UR3G8NooHzc1jTlClNl6pWp91GlO8TdQI39d4RoYQjc/C7nSmuEXIDtXG4atpd1KybVlN7FzywWFz55Uw6Qsx9glhQhdsx8H9u7G9vifENbrQ3Gucrjt2kIv6wnSpOpjsp8gtYQaFlcf+i1MEbHpMI4ePSo+DuH3X75GoGn95/dcfX20MI3ApsPVZdLj0O/45etAyBbLR+Hjh4Dtl1i3/xySrxxGnFcuFoUvxnXZ+bgIDqemk9Tqg/cSOS+klcwgJ7cIeq2E4Zlm50A2Owe5RXpo1UK2vxTDRbu2esh6kiblDDQYPkmFQK0KYVTLoxGc1vAL7YSzu67h1fG9SLMdAWsdBinLx2JJYSjW7D+Avbu3I/6nMNQ2Dao7woAvZWO8vFyRzamwA/826XgIW3y5bj/OJV/B4Tgv5C4Kx2KFHSSN8vr4hY8Vl3mrmRp7pGVWGwC/ECLTWYf955Jx5XAcvHIXIXzxdfEFYrgGMNTNR5asw+Hmzi24kP8Ay8cuQWHoGuw/sBe7t8fjp7BeUO9Vsvw9ttgCHuEDcX3rUTw/vAcZtqEYLNogrSdc6Ou3gGnEJhyu0TVd5f/+C74ONJVZ3av157Jk/Pj1GVjNtselr2NwTtFumNpYI9W3KtHU3mujSs8cDgEja6zIVRqQtdB30jb8efo0TtPj5JqRVPyWdJH9ivartF/wkZOTT/8VmKHqMUKrlzfs/jqOYzdP4HY7R1h91BGuViU4deImjlwyhIeLvvgmZfCRvmMv+D4h6ChlNu+1zRTVZfDwMueFVIwUVJ+LIr1W4pQsnBoDUGWbPVCqbszQNDbU25a4MDDURX5Wrkzbym7uxJYLRWj+LrIrQmEM46MgOxfahq2FKYnuFEDzCMMX2qEIHvJyBc94Kx9/bzXTdAyvC5rHHJWo1IdB3eYUfwMahTVFcI194IVExJ54WdN5hefjkPDGA369ZOfJta/lIyvxe8QlV0JXhQTMy1wUGprCzEAUNfgFZ7DrWCZ40k6tAG5HPwQ03Yl58Q/ocEqpeIxtS3YhVYuuyrg94Da0CDvWJqNEeDUtN2sbpkbG45GCDQCB8fIZRrTrpAJuDzcMLdqBtck1pSJr21RExj+S7OIIIcjbOwPhcTdEDxZz9WDq5IgelfkQLKhV1adWH/y72J1wVfRiiiCZ9wc2nGgLd8fmovTd3Ui4WpOLvD824ERbd4iz1cBFR78ANN05D/EPhFqlat2GJbtSIVCrQhrdQ9Jm5fJUo07Hzd1DYXYtHot35WJoSH8a7hm8zC2EoakZRKqgDnZmF45l8mQmddDqgA4tnuH+Y7F38fNwaM8pFAgqUmEHKS/3YkZ4HG6IOgh6pk5w7FGJfEEHld5B0urduFV9kzQq6iN5SsosNNbcHkke9s4IR5yoEGo6pnBy7IHKfLkdYK4xfLyAxNgTeFltGlmJ+D4uGZUfvkJuoSFMzQyoFIKMApzZdQyZPOkgrJ6/yxab2IfD4elaTN38Ek4j+ihegVP74fAZMOqclLa4h9tQFO1YC4mbZmHb1EjEyylbtT8X4s+5E3DUdjl+WbgSq13PYtL0/yFP0HRpWeoYa5Sjob0rQLmetdChQws8u/9Y9DiSIO/QHpwSOoeGcNrB1bUJDq0/jYJqOYpOY9O+p0JfVjtGaPWBl9VzbF10HnpDh0BX0D+uA5GzbRFON/eAe0vxTcrg3UXCiVYI9q3+2FvEe20ztUDVZfBxd3cCJNXn4Y8NJ9DW3VF8QhmqbBMqxwwhKmODYAHDByM0yvraEhfGoqCCE5KggsTv45BcSeWpp+yld5KwevetGv+oQUEMo8aDuIQ38PDrJT6hHK0OHdDi2X1IQvEh7DlVQO1S+fhbaKzpGC5AWqeq0DzmqESlPszqPad4X9R/p5TbE1PWTEL0GHe4bDaHMScNyU8NEbVuHfrLlypz7UB05z7FjTxLfLvVHjo4Lb6oNtqDxiBKeyR8Am/BqvUbPM3Qg9+4AJxYPgs7h4aIr1IAtyvGb1yG4pkTMXQTHx/qtIR19OdwvnGbmoMWLGYug++n0XAJsMCgj4tx71oOBizcCvdaD0lx0LzfQJCIsQgqHI/Fi9uLzytAywIzl/ni02gXBFgMwsfF93AtZwAWbnWXe/aKC5PoxfALHQenAHP0b/Uaj24/x8cT1sFBh4ZH6fqWdBLfI0KlPhzD6CjsAOfGKxAYGI8e7QmeXnyINjM2I8KIlpsuyHZG4xWBCIzvgfbkKS4+bIMZmyMgyFb8QY0s3K7jsXFZMWZOHIpN/A+h09Ia0Z8748ZtxasDThtf+HwQhwAqj4m8PDUVyuk4dhR6iOYqEj5ywMgBM+B5Ywyum4qMa9CYKGiP9EHgLSu0fvMUGXp+GBdwAstn7YRjhPASKnBnfDqpP9zDXJA2pCc+yH2BDy28MKBIkKncDrzMP0Irv1CMcwqAef9WeP3oNp5/PAHrHHToBOo8Vn+xC15e/ugnvypSUR/XJBqLFZb5EUwtldvjeXHRQrgmiF7sh9BxTggw749Wrx/h9vOPMWGdg/iCarjoOWUNJkWPgbvLZgzszsXTG3mw/HYr7Js2g0GUNkb6BOKWVWu8eZoBPb9xCDixHLN2DkWouAR1/G22qNUfn3oWw+poEH6k7VAEp3k/DCQRGBtUiPGLF0OFl1I3nYllvp8i2iUAFoM+RvG9a8gZsBBb5Z1fqT+7onhPJGbeDcLmQ1b4iMprNfc3jPYOQnRCHySOkJYlFqNUxBqZvlWJtmb2rgDleuaC/+kk9HcPg0vaEPT8IBcvPrSAl8g5NITGsokrMHbM5/AM2AVLI4LcLAYDA13RVPAdkGrHCG309zbHs9X3MX2t6KEyrb4u6JmyCk9nr0UrOfeSp+LiJiSbjcIXcl33vtvcWWUZTeDg3BgrAgMR36M9yNOLeNhmBjZHGInzlaPcNvXQxk7ZmFGI44KbVcUGqsd+AwkixgahcPxiLFZhSyqH1Z5TsGZSNMa4u2DzwO7gPr2BPMtvsdVeB1qc+shOJ7XnV+OLXV7w8u8nt8kkG8PMjTlIS34Kw6h1WCcwnrPiy5TA7fwpJvV3R5hLGob0/AC5Lz6EhdcAFKkafz8yhaVGYziF01xWpyqnBhrGHJWo0ocOmhhrOKdQNL6+D8Qv8dQfpoS8uJ9Mku9lk2Lxi3BKEV57g9x6ki/1tpY63pK8R7dI8p10UqTpa028bHLxwMWat5EFMOmxZOjg+eS26MUsShV5lUrLvf2M5KsRhil/Q14Vlmr2VlXVK5J6K5ncfqaujeXkVdodknzrEcmVez1OdX1K9CF4C7u/6E3G8rxH5EbyPZIt1SEVZ6aQ/sI3R8vp/Tc06y85eNkXyYGL4jfthTAkPXYoGTz/tugtOiUI5LkpJ488ddJxNW/zyCOq6zvpRSrvq3j1lNy4dpukFyq6SrkdlL9KI3eSb5FHMh1UQg7PnEq2i9/aU4Sq+hSXKUBze6SFkLQ7yeTWo1y1b1aWvLhPbtx6UqvMt7RPbiXfIekaO5Ui/g5b5JEHi11IYHwObY0KmHLy5lUhKdWwOVWvUmn7b5Nn6pStsT9LUUuWOvStKjS092o00nPFK/L0xjVyO72wbr4nA48UZdwht5++UhwH6jJG1IHSzAfkaYFsgX9bmxWWUUHOTOkverO8nPbVjWRyL7tYtd0qQLltKh8zalAaGxhS/uYVKaw2yjrakjRMyQty/8Yt8kSBMddZ9pLDZObU7bW+6UGCKIYlqxk/FFNBXj29Qa7dTie1Q7EKXWrs83I6VYPGMUclqvRR3zlFw/PuE8t/I0wG2eg/gPj+fI48f8sjpS8uktXDe5FPvlc9AfpPIzWYK0IScOsPk7GR+A/wJT+fe07e8krJi4uryfBen5DvJbP1//MweX+QFeuv0ukli1IayBaZ/Efk0uGfiN/gMeR/heKTLBrTED7/X+OfbbPUxJJFAxiS98cKsv4qG03/r8H9hiLevPy/QyM99POwgda53/DzstXYcvA+PnBagGVTBqGZmo9X/rsweFuqA2ObvmijqI3MW5TqGMOmbxvBJyP1opFeP3jYaOHcbz9j2eotOHj/AzgtWIYpg5rVu8z/Go0+6obBA9pp/tD1/5c0jC0yaUex4cBLWM+Yg8CuHyp4zolFJQ3g8/85/uE2M29LoWNsg74KDZ9Flkb4qNtgDGjHRtP/azQSzC7Ff7OwsLCwsLCwsLDUG3ZZxcLCwsLCwsLC0iCwE0sWFhYWFhYWFpYGgZ1YsrCwsLCwsLCwNAjsxJKFhYWFhYWFhaVBYCeWLCwsLCwsLCwsDQI7sWRhYWFhYWFhYWkQ2IklCwsLCwsLCwtLg6DB91gW43L8zzim7YvZYf3RWHy2hsp7SPxxFwpsJmDcEEPROX4h7uzbiK1HbiC9RAdtethgeGQYPmkr+CJUPnL/XIdD2kEY/Ym+7My28ha2rcpA6DRfmqjA9YSluN4pGp/bttR4BswvvIN9G7fiyI10FGsbwtjcE6NHu6FLE/EFpVex6ccDeFb94/2NOPigWVuY2Q+Dr0VraIGHOztW4Fn/KfCr/lFNJh/JuzZi+4nbyCr5AK26W8Jv1Cg4G38kyv//FCbzCNZdbofIoN4qf3SeST2IX290xthAs3f4cfr6oamM7wUmE0fWXUa7yCD0btDKGWQeWYfL7SIRVNeCqW/e3BWPQ9ndEDTVB0p+flvQaTj46w10HhsIs79dcar5R/r0X6yP98U/6jvqkI/jNXBgaBeFCc7twClPw/H49dh98SleaxmgKx0Lwkd7oLvwJ5pLcXXTjzggGQjA+aAZ2prZY5ivBVpXN5iXj/tnz+HmC6DtAAfY99SHxGUqkXf7T5y69RJa7frBdkhvyX0KKUfa8Xis330RT19rwaCrOTzDR8NDJJAIlfWxsPw3UD9f47/Btd+X4ruZP2BfgficFCXHlmHmwh+w4dxL0Ymy21gZOASR+6sw8NMvsHDueLi1uYN5Qz/BzCMv6bSSj7wzG7HlYgFqzWir7mD36sPiRDlS/rcSv198Vfs6JZTdXonAIZHYXzUQn36xEHOjPNAxczm8rCKwPV0UQPgl17Fjy1006dUXffvSo09PdGryAknj7eC57C4NFZW4t2c1Dj2tEl6P4itY6u2MaX/qwPazr/HdN1MRYPwCq4Y7IGpXBh3i6wJt+8YR8IpNqeN97w9+3kaM8IpFSj0EYrJPYMPeB1RjcvDzsHGEF2LFhfLSj2LD/od0yv73Iy3ju7S1XjDZOLFhLx7UUtC7wiD7xAbsrUfBZUdmY8yWMvTs2xHNZH7KRs42eek4umE/Hv4TnaYG8vIGjlzI+Hvt6V+sj/fFP6JnDakVx6UOk4+bUBd5inXB3vj+aXcEzYzBN1MDYZK3Ej4243Egjy8oANd3bMHdJr3E9/VBz05N8CJpPOw8l+EudS1+wZ9Y4DUcC46ko7gkDX/McYXDzMN4SW8HXuPsAhe4fXkcORWlSD34FTzsp+JArjBTAQyerguG9/dP0T1oJmLoOBJokoeVPjYYfyCPep+6+lhY/kMIdixVwmSTFc69iLNzH+K1NpvI/uz5X2RrUE/iMLQ/sYy5R9MV5Nr8waT/xGPkldzvoxefn0n6mU0n5yqqyK35g4jdD09q/yB6yWbiZzxWnKDJI7PJtG0F4hSPVKn6SeqKa2T+4P5k4rFXcjJWkZSV7sQ0dCd5RVNM7mri1msalUOUWw3vyVJi230C+bO8lGwN7ErGHBT8UHwpOTtjABn81XnyRnRZDbz0zSTQzJusS5NuhRoZqWQ5q9yINdWVfNt5FRWa/0A8U0WqlPwev+pyqkhFheyNTM4q4mYdQ+6pq5xXQSrkrqm4MIOYK/pdXiaHrHKzJjHiQstPTiT9w3aJftC/ipajRPYqahtKsjSER9snK6S0jMrbSvWiTKG0Q5V3qYr7BFRcIDPM5X8zW809SpDVTQW5MMNc7W8S17YFhmTEOZOhP6UqsBE52yw/SSb2DyO7RJ1Wy25qoP2p1BaVOkNddMDQLqgtbW2Uy6hcjjqgqT5Utk3VffKobned4oUS6utvVbRuxfdRX9FY1bV9VQYVcUKAsjheTdWdb8hg28XkkUwVxeTkRDNiv5SOPUwuWe3Wi0yrPRCQpbbdyYQ/S8jdb+2J40+PJHouv0Bm9nMhv2QyhPcsljgO/JJcLhfnUZ+8Mc+C2Hz/QHG/VN0h3wy2JYtlBSLFNDaa2S8lT3hVKutjYfkvoeEnzDroH+aDV9u34onUbg8/KxFbnzjhU9smot/xrTiL+F36iPrSEfpyJetazcDKr23RTNNNFv4rXMrshQjPQiRO84KtnSu8PGxg5ToT+7JqbzlVnI3HLv0ofOko9/E6tNBjzPeYZ90Ub1TsVHHbtEeb8kIUSG+PlhzFbwc6Y+IMGzQVn6qG2zEUc/xysGnrIzC8VA1krMS12BEIWZmMBwmRcBu9Fg94fOSfXoJg24Gwc3ODvYUNAhbSFbASOfn5p7Ek2BYDbV3h6WwD+6Afca5QuNZVXk7lRSzwjEbcynHwdvXCMPdB6GMbjcR0BpXXYjEiZCWSHyQg0m001j4ow5XvQrHg0BksC7NBb5fFkjrt3OBmbwGbgIU4rkxAAZXXEDsiBCuTHyAh0g2j1z4Q7niQ8hSsH+cNV69hcB/UB7bRiRBtIjPIOjgH3paD4OTuDJvB7pi2O7XWLgnzcBn8g9YgVarqivPz4T3tkEAxOL0kGLYD7eDmZg8LmwAsPJ4jsytcu620htLrWBPhhCHOw+Dv6QArxwnYkSaqmZexH1/52sLOwxc+rp6IXLka032/xpkKmslk4eAcb1gOcoI77YfB7tOwO1XNvo6Se1S2S0PdyKLMFipx5adghP16A7fXj4LHpB14XrMTosg26WlSjpT1te1GAJN1EHO8LTHIyR3ONoPhPm03RCrgITVxGrxs7Whfe8DGyhUz92WJ+kJTvVVewXehc7Bl01T4e3jDz8cFNvbBWHrulXBnh3d9EXynHES5CttWKYcU/MzfEBr4Cx5VZxQlYWx/Zyy+WS1XGY7McMMXf9LApUIfStumUkY51LRbed/ykflbKAJ/obFIeJ2gGWPR33kxJM04ghluX+BkuXKbqrzyHUIXHMKZZWGw6e2C77Z+K9IztY+LCzwRHbcS47xpjBvmjkF9bBGdmC6qj5eB/V/50vjnAV8fGpsiV2L1dF98LXQWOVT4auXFBfCMjsNKhXGijlCd8N4U4JWMCLqwm7URMZ76yn93ntsG7duUo7CAh0Kd/hjh3kXyUTS3GZo2/QBcLdrkR6mo+sQJ/XTEedBGtx4dUfbXq1o2JoIBn/cGBbICQdduFjbGeEK/EaOyPhaW/xTiCaZyhDuW5mTO5Yck1nEQ+fpa9ZKURx4utiOWC5LJ3e9tiJVgp+PRYmI7aD65rXLVqvmOpYC3+yJIn/AkItq3ZMjzTf6k1+j9crtkPPJosS0ZNP82LV01Cle6TCG5ttSFdPVcSzIYyY5l1Y25xJyuJp8qXILSBeWhMcTYP4G81EhGAbK7QkxmPPHr50/WPxRug9BF7zPye2g/4r7qaW3dMJkk3q8f8V//ULTzR1fID2KdSf/Jp0iZqnLKT5IJxgZkSMxlUiTMLCf3aL/1nX6OlkCLldnFqyBnplmQ3tYB5KuDqeStgjqf/R5K+rmvEupE8x3LCcTYYAiJuSySgJTfI4vt+pLptBN4z1YRjwHhJDFT1HNM3jEy2dKZ/JwipwHeffK9rT1Z9LD6/FtyPHoQGbWngGTG+5F+/uuJpPm/k9B+7mQVFVL5jmUVufudLbGNuUM1IoAheQmBpNfnh8hbXgqJczInY/Zmi/qBySNHppiTFp0iyR/lPPJslQcZEJ5IRCLT+45NJpbOPxN5kSU7liruqVDWriIVuilTumOp2qYYkvbzUOIYm07/kqf2jqVSu+E9I6s8BpDwxEyRv1H9HJtsSZx/TiG8t/tIRJ9wkiT+oIF5von49xpN9qvSQS29nSFTe7chltOOkHyxoG/vrSAefUeR3X8xkj5VJaNSOUTpGnj3SMwnTiQuTVRRyf4xxLpvPzJ00UOxHo6TaPORJDFPlR+paFupav+TQU27VfVtxb0Y8olTHBE1o4TsH2NN+vYbWmNX5cejifnIRPJKhb9VnJlGLHpbk4CvDpJUWoXEd8rJyQnGxGBIDJG48GJi11fwCRSPpMQ5EfMxe0m2sCra9iNTiHmLTiTyj5rtPDGMSl9VFSfkEcRx185+ZOnuvWTvXqlj/ynyUHA785wkRQ8gXfp4kci5y8n2k/dInrQ4CncsGVJ4bSlx6epJ1mZIPITJu0dOHdpB4qK9iO/8U6RAkiWBl0p+8xtExh+W/2yrGjouJEWTAV36EK/IuWT59pPknoxAEjSqj4XlX4ym78TQ1VNnjBjZDoe3nKMrWArvJhL2foDgUb1rVlik7C3Km+jiI6XLwbrDMTCA1r2jOHQ9j66bOWgbsgb75n1C14fSEJS9LUcT3Y8kK9GKk5jraAVLS0t6DMZAiyjsfCXKYrITMd5WcF6UZzHICTNu2ePXtWNgJKURfmkpKj7Uha6S9jTS1YV2eRmqNJJRHj6y9mxFjs98RJiIX4nS7oKQBSEo274Tj+WWvfysPdia44P5ESbiF6i0YRq1EssC2iBdXTlccwRHWUBPmKmDbkMGQyszA+KnSGXhv4G20zy6qu8MbQV1dglZgJCy7dgpL6AauObBiLIQSQCdbhgyWAuZGeXI3LcHZcFz4d9BtCznGDpidigHB/Y9k135c3sgdHhjHN4p2gFF6SnsvtkfIc5vsGdrDnzmR0DS/BAsCCnD9p2PRScUwoGh7xL8Gm1GNUJhyvCmgo/X+Xkoe7oXeysDMcu7nci2OYZwnjYS/QRP+zKZ2LenDMFz/SESmZbjOBuhnAPYV/tNAhGq7kk3VtwuV13NdVND3WxKLUrspjxzH/aUBWOufwfRSx1UP46zQ8E5sA/PiAEMtO7h6KHryKukWW1DsGbfPHzCrZveSFUneH3uBAOxPzY2i8R0m1tIPFYsOlGNMtvmKJFD3impXQ1zqsDJo4Ln3Cpw9c8sWC34DE0vHhfu6FZeO4Lr3TzhJKhAWV2q+lewFV0H/1Pe7tcq+/aZ8TA40Zh3VPD8YMVV/JllhQWfNcXF489puypx7ch1dPN0wGuVNsXHG20nzIvxRGdxFRK4MA+OgsSFh2CwViYyyp9i795KBM7yRjuRs8DQeRpG9hNEZTn4WWp9VXGcUBipQCrykHLjOq5flz4e4MVbqgNOW/ituoKr2ybCRu85ji+Pgr2JKYZGrcKlV6L9X8Ez0InjbcXjgCUGWwyC04xbsP91LcZIDQT8Vym4dOESbufw8EHla7yRb9jrW1gXHowt3b7DNy6Cz7b44FWUo6ysjB7lqBCaNx0X/FbhytVtmGijh+fHlyPK3gSmQ6Ow6lL1jrQItfWxsPzL0XxiSQNLG78w9D63GYdfA+Vn6f/tRiKkU83GPfXl9midl46M6o9fZCjGqZ++wtZHDDiNGoHPKBjleAwYmieNtvUCbJ1rhLMxgbAeaA23qNW4U9VE7i1F6rTtWyMvXepBcx1HfHfyEi5fvozLF+Lhq/0cBTyR+3LbB2HNOXpekHf5Cq4lJ+PM1jlwEkXGGrQ6dIBBbjrSFbaHzgHSM8H7uD1aaCSjPDxkZRbAyMRY5jquUQ90KslEplydvKxMFBiZwFj64o+6w86uC16pKadRk1ZopSfpao6ODjhMlUwwk9AYXU26CctSWCfXCD06lSBTXkCVNEKTVq0gEYEDHR0OmKoqZGfl4NnO8fBwdYWr8HDHZ0kl0CVFcpMnLoyCgtHqZCJu0apL/tyDh5ahGKqThcwCI5jICgmjHp1QkpkpTiuCg2Yf5CBxViC8vP0QGDYZK66XojE1PyY/H8Ufd0IHKXPgtO6I9oIVBh2MsnKeYed4D7G89HD/DEkluiBFCmxagMp7oLhdHzEqdPNaSd/VzabUocxuqrKzkPNsJ8Z7VMvlCvfPklCiS1DEtcaCrXNhdDYGgdYDYe0WhdV3qtCkUR31pvUxOhhJ++MH6NKlFV5m/yVOi1Bq29pK5JBWjBAtmPo64M2J4yisvIUTKd3g6uIJO/4ZnHxViTtHr6Gjlyta0CuV1qWyf/l18z+l7c5V3bcwha/DG5w4XojKWyeQ0s0VLp524J85iVeVd3D0Wkd4uTZT62+Nu5qgWy0dURo1QatWepIBg6MDHQ6Dqqp85Bd/jE6yzoKO7XVrf9zMU+eryuKEYmvn6A/G6AXf4ttvpY6F0RjahoPylxl48boRWpq5InzmD9iw/wIePvwDUz7ajPCJiRDMv+lAgKA158TjwGVcuZaM5DNbMcdJvKAUo2UagK++X4aNu+Phn/EN5u2jA6AQBrlnfkSw+zTccFyPgz84w1AgO+8u1oz2gIeH4PDE1B20beUvkfHiNRq1NINr+Ez8sGE/Ljx8iD+mfITN4RORKBRIhPL6WFj+G0iinSY098CoT+4iIekxDm0+jz6f+oP6cA2clk50cnYGiacUOELBMWz87RF4+lwYtNGngTJbMgkUw6PBJU+/jTglgI/Cxw8B2y+xbv85JF85jDivXCwKX4zrMjdz0NLJCe3OJEJR1fzcC7j0WPGqVxWc9q5wanIMu66Vic9IwX+OpD0PMdjdEm81klEeqgdDXeRn5cpMoPgF2cjVNkRr6chG4RoYQjc/C7nSF5fdxM4tl6HVSvNy1MMBR9ynCuvkFyA7VxuGdS9YAVzo67eAacQmHD56FEfFx6Hff8HXgaa1dnw5rf0Q2uks7Y9XOL43DbYjrKHDNYChbj6yZIVEAR2ItQ1bi9MKYFKwfOwSFIauwf4De7F7ezx+CuuFD2kWt11b6GU9QZpUkUz2E6SWEJqpD/0WpojYdLhG3qNHD+H3X75GoKmSPWo19yhsl0rdmNDphiLqZlP1hauvjxamEdh0WCLX0UO/45evA9Gj9DEewhZfrtuPc8lXcDjOC7mLwrH4VrO66Y33EjkvpFvBICe3CHqtBFM89fALlcihwCm1ennD7q/jOHbzBG63c4TVRx3halWCUydu4sglQ3i46IuvVIKq/jVR3FNKUdruVmr6Vgu9vO3w1/FjuHniNto5WuGjjq6wKjmFEzeP4JKhB1xo7FXnb5xq59cUbju01cvCE1lnwZPUkto7lvX11TrDw/0VARi+8rGMrtC4M7y/iECXu1fxRN0iq/IsZlmPxp5ScVoAnTDbW7dG+qMXNFGBB+tDEfBDCSJ2HMWvo/tKnsPX6otJ2/7E6dOn6XESa0YagXd/BQKGr5T71KAxOnt/gYgud3H1wSk19bGw/HeoYxRpDLsIDzxfE4XYu7YIdxd/ZFENtzPGzPfCzS8nISFFajJW/hTbpy3AbY/JCDDQgqGHP3qcXoXN0tfwnuPA8iRoefuJTwggyNs7A+FxN0Qfv3P1YOrkiB6V+fhLxkEFVY/BfK+b+HJSAqSLReld/DbnAP5qo2gZrgZuT4yb9wlOTZ2BpHSpt474hbgaF4W4imh85aunsYwCBIFbsFtL6CTA2McLSIzFiZrvkyjE+bgEvPHwQy85cbnGPvBCImJPCL6ySQAfWYnfIy6ZQZ9hmpdTCyoPh8+AUfBxS+06acnn45DwxgN+KgsWTE75YBQVKgMXPdyGomjHWiSXiE/xs7BtaiTiHyl6/qA53EPNcC1+MXblDkVIfyoD1xgiNZ6QfC1H4XnEJbyBh18v8Qkx0m1lXiK30BCmZgZUCgqdMJ/ZdQyZPD4adfRDQNOdmBf/AEJTqniMbUt2IVWLysTtAbehRdixNhkSkbdhamQ8FIosQO09CtpVZ90IqJtNySOxTdVwe7hhaNEOrJUIhqxtUxEZ/wjUGTAjPA43RM4APVMnOPaoRH6hcd30xr+L3QlXUT3O8vP+wIYTbeHu2Fx8RjVEmRyKnFKrD7ysnmProvPQGzoEugLduw5EzrZFOE0X0+4txdcpoz42oQyl7W6ptm+1+njB6vlWLDqvh6FDdIVyuQ7MwbZFp9Hcwx0t62VTauB2hF9AU+ycF48HImfB421LsCtVq/aOZV189Z3QgpmzLV7vWIZDz6VnkCW4uXkPUk0GoLsaX4CWCfq1v4KtuzIlk9PKFCQeeIm+gzuCdzcWk3b0wopdC+FupGRBKYWWmTNsX+/AskPPZTZUSm5uxp5UEwwwNVNZHx3IcCdpNXbfqu44FpZ/L3WcWFIH6fcpAnVuoNQzHLa1nsMBdG2/R9KSLkgKs4S1Zwg+HeGNT8x9sKbpHOxcJAjatFKj0Vj9oyn2DB8MWx96Tag/hg50QazOl4if2UdUkBAuTKIXw+/2ODgFjMWksSFwcV8B7oTJcKh5G68aXdh+n4QlXZIQZmkNz5BwhId4ws7pSzwZthTTB0g9f1kH9N1+xq6v9bDB34LKGorwUcPhPMgO0++6Y8P2CTDVqouMHDTvNxBkx1gETdmCpz2mYM2kcsS4uyB07DiEuThjds4Y/Dqrv8zHXULoJHfKmkkoj3GHS+g4RH/qguHbTPDtPHs06VmHcuTgNO+HgWQHxgZNwZaaV2PFyNQ5FuPCXOA8Owdjfp0F4dxHGZzm6DeQYMfYIEzZInlTVRFaFjOxzPcWol0CMP7/tXdvMU2ecRzHv1gCDiWQDJFFxcEqIBoPU5J1BAcqSOfwEPCAI8syD+Wkkgy36NXQLEumETROd7FEe6FLjNvMbrzwwkPITLhYXKJLrWFFmLBhRLQyYZO6VxFHsZRS6qLx90m4gOR9n//zPP/n5f+0b/tWVRqxF2FPqjH6MuBLgwcYl/M+b/70DX8sXmuM/cO/mEjfeojN3Tux5q3DVlpCXu4ntK3/mm2DgvTqq2se6zdFcGhZEaVbylj3Xgnfp5dSeG0f2068QtnhOjLOVrIwM5sc63Yc+RvIjTYZMxhORnUdyy+Wk1dYRlWl0V6RnaQao33fIRuGP+bpfo18bB4yBZ0L3rk5OBW8hGdQXbeci+V5FJZVUWnkRZE9iRojT2LSyvli5S+ULi7EttnG2jwr+00VbMkZN7Jxi8ohd+x+ioo2UlW1gWUFuwn7uJYPB94E7YdpyDieWpSGCOYWzKPxXBjZi/o2y+Gz80h3nCdyiZW4YZsMJieG4Kffw85txFwK5jVyLiybvm6EMzsvHcf5SJZY4x5d7IPJKf9MvFF2mLqMs1QuzCQ7x8p2Rz4bcqMxPTVuga/VQHjfK9//8zYrvmxgzIKd2Cu62ZU1A8vS1ZQY/4csKWkUn57Pnr3FfW9Z+zMmnrW7PyfRvoJ3CjeyZfNHFCy0cWFxHZ8ZOeT88SQ/X/2OikXebb+7qx6fX3wydgE77RV078pihmUpq0uKKbCkkFZ8mvl79lKckOCnvShjA+Cm/uCnfHW248kmX+R5FcCTd4LVzY1GJ81d43k9NZlXfV3PPXdpvXKF37simWhOY2rsUBeXHjqanLhuRzJ5WgoT+5+iM5TuGzQ6r9FpiseclkhMSN4C/Is/nVdpcT98YkKqj1gDj9HT46bznomY2CjjUmv83tWGw9HKg4RUpk8a77/a93TR5nDSHjGZVPOExx+q6TOi8wzk6cHdeQ9TTCxRvsbqUZsOWh8kkDp9EuMDOrGHHncn90wxxPo8qbf7HS4uu9xEJ6aQPMHHjmVYHrraHDhaH5CQOp1JQwU5qK/d7U6utPQQa05nan+i9F7nwqlmEq2Wxx9IMA67Vkvumk5q62uY9Wjq79PhuozLHU1iSjKBhRzMMcGNTbC5MDg3/brfgeuyC3d0IinJ3rnY09GE03WbyMnTSPFaDAGMwd/nqXrrEJb6b1lx18mvLf8Q729O/Rg6jmchuPl9IsB+B73OBxj9euvXy/ULp2hOtGL5b7FQm7uGztp6avoWyyABrtVQ6O2ivdlFy00PMVPMmEecA73cbbtK441wXjMnEx812lh76WpvxtVyE0/MFMzmiXhHFOr2RP5/z7CwFHlBeZo5smolJzP3cbDcQuytBuxbN3FszlHO7Jg1zCt/MmoDCqw1z7oWfJ68kP320HxkFStPZrLvYDmW2Fs02Ley6dgcjp7Z8XgTJiIvExWWIr64L3Gi7gDHG5q4ExbHzHwb1bYsEoZ9GU9Grfc3fqitJ6nqA+a8TIXJC9tvN5dO1HHgeANNd8KIm5mPrdpGlhaLyEtJhaWIiIiIhIRu4BARERGRkFBhKSIiIiIhocJSREREREJChaWIiIiIhIQKSxEREREJCRWWIiIiIhISKixFREREJCRUWIqIiIhISKiwFBEREZEQgH8By/mo819ROtgAAAAASUVORK5CYII=;imageBorder=#ffdd00;strokeWidth=3;perimeterSpacing=4;" parent="SxoRCARXd7dMq28AoM7H-36" vertex="1">
          <mxGeometry x="10" y="30" width="248.86" height="50" as="geometry" />
        </mxCell>
        <mxCell id="SxoRCARXd7dMq28AoM7H-37" value="GPIO0 USB DFU &lt;br&gt;Bootstrap" style="rounded=0;whiteSpace=wrap;html=1;" parent="1" vertex="1">
          <mxGeometry x="540" y="360" width="90" height="50" as="geometry" />
        </mxCell>
        <mxCell id="SxoRCARXd7dMq28AoM7H-39" value="Documentation" style="swimlane;whiteSpace=wrap;html=1;startSize=20;" parent="1" vertex="1">
          <mxGeometry x="630" y="360" width="310" height="65" as="geometry">
            <mxRectangle x="630" y="360" width="90" height="30" as="alternateBounds" />
          </mxGeometry>
        </mxCell>
        <mxCell id="SxoRCARXd7dMq28AoM7H-41" value="" style="shape=image;verticalLabelPosition=bottom;labelBackgroundColor=default;verticalAlign=top;aspect=fixed;imageAspect=0;image=data:image/png,iVBORw0KGgoAAAANSUhEUgAAAlcAAABECAYAAACs5hCYAAAAAXNSR0IArs4c6QAAAARnQU1BAACxjwv8YQUAAAAJcEhZcwAADsMAAA7DAcdvqGQAACS8SURBVHhe7d0JXBTl/8DxDwvhhagoXoipoHlr9vO+zSNvMdQsFRW1zCOzssKjNDWz/pllkuaBZp4gJaKWJ4GpeZShpuIJch9yy7XLf2ZZFFQuQ0P4vl+vgZ1jZ3dm53nmO8/zzDNG6YqjR48yduxYBgwYgHj8bt26xdmzZ+nfv79hinic/P39OX/+PH379jVMEULkRqvV4uLigqOjo2GKEEWLTqcjNjZW/9/CwsIw9b/l4eHB5s2badOmDfrg6uLFi4SEhBhmCyGEEEKIghgyZAinTp3C1tYWjTpBAishhBBCiEfXrFkzgoOD9a/1wZUQQgghhCgcElwJIcRjkBoXQkDQbZJ0hglCiBJDgishhChUWkL/8GTfmUAi/Tz4/KN1nImVCEuIkkSCKyFKCu0V9rusZe3ae8O69T+ww/MY1+Me08lfF8Fp9/W47L9CqmFSoUnxM2yPC3suxBsmZtIS6LOV9co2rnc/Q+QjbZ6WAJ8trN/8m2E8vxL4c58XCXVa0rLrK/QyP4zHqRTDPCFESSDBlRAlReo1vDZvYtOOXez75Rd+UYa9HttY/YUTEx0Xsj+sEAIsXSg/fTiUobPcCNIq4+nR+P7qxk6f66RlLFF4Uq5wSN2eTRtZueV3og2T9ZRAcu+6NWzctIkfPc9yO90wvUCUAO2Ym7K/fjeM55c5L81byivPGiurCORKSDUa2jxjmCeEKAkkuBKihHnmhTfZuH0725Vhx86dfD+xKcbhPvx6PJrs4ZWW1NTcAq6HzU8nJSGW2MQU5ZXC2JaxzrvZNb8XZfTzs9KiVQOwh9Ep8wwv82JsYkzin0f4Pered0m97IWPvzJPiW8eRpuaet+2ZqV8dm6brVD7gcqTLpq/tv1M6suzsFcDLSFEiSHBlRAlmilVqlrwjKYUZmam+gxBF3cB98+mMqJfb3r37s3AMbNwPuxPZsVWjvNTfVn31gx+vKQEJ5e38rbDHHbeuMK2WaMY87kXd0jlwoYZjJ6ynK0uc5nwcn/69B3ChE92ccWwcm3kH7jMmciwgS/Rf+g45qx15qPRo/jQ9WbGAg/QUOn5/2GT/BdHfKIMAVMql4/4cMu8Ba3qZglqdHFccP+MqSP66b9374FjmOV8GP/MDdOGcmzth4wZ1Jc+/Ycy7oP1nI3JGmUlcmnX58wYPYR+vfswYJSy3b8FPby6Uwmszv16mJj2r+PQMpS//5FqQSFKEgmuhChhtP5erHV2xlkZVi5fyPurTmPRfTIOncyUoCCSQ1/OZcWRRFpNWMjyZXMZbu2P26fzWHs2Kff556rRfexYulgZY1yzE2OnjKBtFS3xESGE3L6jL8lKjQsn6KInHtea4jj/c+YOtSL4sDPf/xKpfLFgPJd+wg++Zejx1md87mRPlT888b4VQkRczi22NNU60bVhGr5e3oSrsVDqRY78HkyVjj1oapqxjPLFiTz0JXNXHCGx1QQWLl/G3OHW+Lt9yry1Z0lCS4D7EhZu9qVMt2ksXjoPh4ZXOXDsdkYJnPL+2799xZyvT2DSYzpLly9mYtNwfl40jw0X7g+c7uDrMptFP3jyw6JpTJrsgq9GSq6EKEkkuBKipEkIx//mTW4qg39gBEm6FEL/PsJRv3h0Eb+x52g0Nfq/xdtD29O8ZVdee8+RDqUD2L/3DIm5zf/lCjWeb4m1EqNhVosWbZph9WBdoJLrNGHo1GG0b9qMzsN60tA4lfDQCLRhv3HgzB3qDlICkt6taPa//rw5uQ818sqljCzp2q0J6ee8+C1ES8r5I/weUpVOPZrwjJFhGV0Ev+05SnSN/rz19lDaN29J19few7FDaQL27+VMQhi//3aOpFoDeWvaQNo0a0m3Me/wSnNDWyndbbw9fiO64VCmvdKB52yb0+cNBzqXu84vnn9lLHNXGZqN/5YtP65hzRpl2PB/jHlOgishShIJroQoYYwb2TN/yRKWqMPSr/h+9Tu0ST7NJpdDhIaGEqE1xrqeDZmFPprydalb1Yi48FBi85ifkEdbJT0TcyqZZ2Q9mlKlMFUCILV0SBcVRbTOmOrWtcgMRUxq1MAyz1zKGMsu3WmuuYCXlz++Xr8TVrMLPZpkaUSuDSc0QouxdT1s7n1x6tatilGcMi8ugqhoHSbWyrZkvk1TCetaFdDHZ9oQgkJTSbvowhtD7bCzU4aRn+Fzx5Sk2Cj94kIIkUmCKyFKOE15SyqXgdSIUG5XrEQFjY7Q4MB7DcrvBBEUlU7pihaYVc59ftnMHCW94LfnGVe2xEKjJSjA/+66k29cJygfAZumcie6PW/K5YOr2OoTybNde5CtsEgJlCpV0KALDSbw3hcnKCiK9NIVsTCzUOYbKTFYKKGZ83VxhIQaunjQVKSCuREmzd5go+de9u5Vh538sOpbVkzvmrGMEEIYSHAlRAmjC/flF09PPNVhlyvrlnzL/jCo0rQ5dWsqQUqz0tz0+I6Nx/yJDPdj/+oN+MRY0LF7K8yq5T6/DCY8Y2JEevQtLl4LJKoA7bg1lu3p2lxZt/uXLHf35tihLXzx3RGy3ASYM436+S9Q6toJTt2uR9fu9e6WfukZV6NTt2aUvunBdxuP4R8Zjt/+1WzwicGiY3damVWnbfuGmFzZxXc7/lSCxRDO717Jtj+TDHc9VqdDp8aYnHNn9d5/CI+N4sovXzHD8W2+P52o/wghhMgkwZUQJYzWz5PlX3zBF+qwfBU7faHJ4HdZOLktZYytGDJrFkNr32KLkwP2wyex5EAKLzjOZXKH8kqQkcd8TSVadnyeimF7lfUtYHdgfiIjA2Xdg2bNZmSzZLxXL+Yzl5OYDRxMMxMwMspsPJWzCu2708bciGcadaNb7fvbOBljNWQWs4bW5tYWJxzshzNpyQFSXnBk7uQOlFfm17V/h2k9zDj3/Uxee3kkMzZG0fiFGoZM0phnX36PmS+V5eSyNxk++GUmfvkX1V5xYmbvyvolhBAik1G64siRI4ZRIYRQaYkP9SckzhgLq9pYPNAwPff5upQ7JGpNMStTgIbc2iD+2O3DLct2DO5QW1/ylHphNROnu1F1+haWDrLIWO5f0saH4h8Sh7GFFbUf3DDuRPkTHF+WGrWqUOYhl5+pMUEERKRRvpoVlmYF2D4hRLE2d+5cFi9eTOfOnSW4EkIUEboojiyZzEKfMrTr25XnzBO4dGgPx5M6Mdf5A7paSEG7EKLoyhpcSW4lhCgaNBZ0e/crlji2xSzsEr4XQjFr58iS5e9KYCWEeKpIyZUQQgghxL8kJVdCCCGEEI/J3ZKra9euGSYJIYQQQoiCWLFiBcuXL7/XoF0NrGxsbPJ1u7P495Rdrv8v+/vJkP0tRMFImhGi4NR04+/vj7W19b2Sqzp16hhmi8fN29tbH9mKJ+Pw4cN0797dMCaEyEtKSgpNmzbl8uXLhilCiLwMGzaML7/8UtpcCSGEEEIUNgmuhBBCCCEKkQRXQgghhBCFqABtrhL5y3U1B29mPjLeCI2JGVUbtKV3rxZYmmgJ9NrCn9VeYUBDE8My4mHy1+Yq+/420phSvmpdmnfqRttnzfTT8qSL4bzndg6F1KH/+F7UK/CTOorHb5r/NlfJBHhvZ8ve09yMM8GidlN6vDyM7vXK6ecm/uXK6oM3lb2SwUhjglnVBrTt3YsWlsr+SfsHDxd/Go/rg819+/rB9z5DuSp1adW9J61rPfgIFiH+S/ltc5XtuDbSYFq+KnWbd6Jb22fJZy71r2kDvdjyZzVeGdCQwsylks//zI7b7RjVqZphikHiX7iuPsi9U6GGZ8pVoW6r7vRsXQtJzSXXo7W50iVwzsONS2Ua0KhRI2VoiK1yUgjbN4cR49dxMSWdqHNenA7MPOLEv3Lf/m5Qrwalos+wfpodI5d6EZ6P5+He8fqUWTvvUL+RFeUf6aYfLSE+2/jFL1V5rSN8xzTGr7l6N0AoXrTc2DwVx29vUK//JGbOGE8/mwg2TLRn9oFwZet1JJzzwO1SGRroj/9GNLRVMtKwfcwZMZ51F1Mg9TJ7fzjEzTTDKu96yHvrW1M+9hhLRw5lvleMYblHVdx/G1E03XdcN6hHjVLRnFk/DbuRS/HKTyZVCLQhPmz7xQ81lypMyRc82XYs1DB2jy7hHB5ulyjTICMtN2pYH+vysRxbOpKh873416k5fAfTxq/hqiTmp1oBqwXLYt26D/369dMPA18ezdtffsOIpE1sPq2l2ZTv+ejFUoZlDdJSSHkyaawYure/Bwy2Z8yUeXy3YyV9LixkwW71hJ+Fsp/Tsk3QEXU9kAod7OjVqTGWd3/pNFKyL5h/SbHEJBbTFJ/mx087YrBb7IR9x8bY2DSm/dB3+faTNpxcsxN/w2aXtW5NH8Px32/gy4x++0u+GZHEps2nMxbIRbb3DrDj1SkLWflmdfa6HyPZsIyeVkkzuexmbUrKg0FUcf5tRJF297geMBj7MVOY990OVva5wMIFu++7CNSSktuBnV/5OafkmoZyywPzmT+WtaZ1H0Na7jcAu1ensHDlm1Tf686xbIk5h/Sa6aHfM4nYmES5UHrK/fs2V8aW1LBMJiY6Dd9vJzL/YDIpp5cxbs5aNsx2ZIzjJMYOfolhc3ZzS46Wf69UfUZOas9F91+JVPIAbdBBljraMXjUWEa9PASHBXvwVzKfP1dP5e0fz/HP1pmM+8iDkHhfNr37Gq+MmsQb40cqmcFcPALUIpYUTi8bzydHsuQIaZdZM2k2exMN48oyZ9dMZ9oGX/zcP8Dh3R/xe6B05mmnIz0tnujoFMN4hnJtJvH52z2omGPJnzGWNSxJjok2jBeQkQlVqlRGXb0u4jjOU4cxcLgDDiMG8fIbX+EdlplodEQcd2bqsIEMd3BgxKCXeeMrb8KUzLn4/zbi6VKK+iMn0f6iO7+qmZQuguPOUxk2cDgODiMY9PIbfOUdhlYXyNbpk3G5W0QTyz6nfoxaeV4JcTLc8VqIw5KjxOXznJJrGkrMKQ9U6MLx/up1htk78PrEsYyevJQj4Rl9feWfESZVqlBZn1fklF71C+b4PVPOrmH6tA34+rnzgcO7/CiJ+an1L4MrHbF/b8L13HO0bW5MSnQIEYnKSSr5Ntf37ifGfhkbN7iw2fVrevitxOVM9hOXeDSlGjfCOsCPq8n+bJ69jLCh3+K2dTNb3dYwIf17ZrsE0HzSCr4c2YjGry7DZX5fYlw+YVftuWzYtI51G7fw/bBIVnzrTTLpJEeHEnU3kFKlEhMaQcLdCzhTWkz4mm8cmlHfbgkbvniN+sWtWZ1JQ16d+gJHZwzF8cP/Y73H71yOUAJOEytatK1PxRxSii72bza5nuO5ts0NU3KWcOMou9zdcVcH1y2sWzab2YdteHviC5jqgnCbvYCznZbg6raFLa6uLHvpOp/O2qxv26ELcmP2grN0WuKK25YtuLou46XrnzJrczBNi/tvI54+pRrTyDoAv6spBLnNZsHZTixxdWPLFldcl73E9U9nsTnAkla2ERzwClbOJIrEExy+BFE+Xob2TMmcPnCCSs2aYZqfc0quaSiNS+tyygN1hOycw6eXevL55h9Zv34jaz+oh4/7n3eDvAck3ODoLkNadndly7plzJ59GJu3J/KCaW7p9aYSVOb8PYObTuDrbxxoVt+OJRu+4DVJzE+tggVXumA85wzHzs5OPwwZNJjXFl2g7aLFjLDKvirjpgMZ2cI8Y6RUHdq1NCYoUKLwQmFaimfSkrkT9Ct77wxg6ks1MxpyaqrQ8fXBaA78eq+xpZ6Gyr3eZ9HoBso1pUJ7h/gUHXGREdmro0o0DdX6fMJPPy9nzAvlCfVez4cjXuTFkR+y8cztjMxf+RvsOYfhhuPfbsggBr+2iAttF7F4hJV+iZylkxYfTuCtW9xSh8BgQiJiiY+6hu+VSNKC9vFTWC+m29tk/EZKQFt74FsMTNrF7uupBO37ibBe07G3MVS7m9Zm4FsDSdq1m+vZfmshigJTSj2TRvKdIPb9FEav6fbcO3QH8tbAJHbt9qde746kHPUiQklgyWePEdzqLYabncY7RJmQ8jde5+rQo1PGeSSvc4ou1zSUnnMeqIvkoOctOk8cTB0lMFKZPjuI4V0r6UuUH0Yt5Q4PNKTlW4EEh0QQGx/FNd8rROp0uabXq7dy+56SmIuLggVXmhr0X7jdEK2789MuDzy2LWdKp+pkvznKiNIWlTC/u3YNpqYatI/a1kdkow0PJ8bcEouwIML8dzNn3BjGjMkYxs7aR0I5iL0vuCpvEobn4smMd5zE5Bkf4+J7h1I5VnXpMDz9ouRIjuRWaCxGlRrQ1X4SHyz9HreDB3EZVwa3d+bhqW88oqFG/4Vszyx9+mkXHh7bWD6lE9XzvBPTiApNhzB52jSmqcNbM3Fa9C0uC5vhvfB7TvkHEm1lQ52sF6rGVtjUSlBOIEkEB0ZjZVMn291QxsrytRKCkGsWUeRowwmPMcfSIozAaOU4zn5gK8dyLRKCAjGx7U37+KN4x6Rwwecqdbp0pkcbHSd+v03Kxd/42+pFulRQ35P3OSUtOLc0pMs5D9SFERJVldq1DZGVngnP1rG677x2j1GFpgyZbEjL095iptMivnVZSDPvhXz/Z2Ku6TVACcZy/p6SmIuLggVXogjQEnjIh9vPt6N+5YpUsLXnC5eNbNxoGNZ9xfypfbHNmk9or7JutjMxg5WEv3Y1zt98jpNdA0obZms06WiVq627tBGE3y5Z0VXaZRcmv7nxvlKgUlj3nIx97Uv8dePxZHqmdZpgeyeAoApVKBcRRHjWz9dFExxuSmVLUyyqlCMiKDxbI1dddDDhppWxLHAXG0I8XtrAQ/jcfp529S2pUi6CoOwHNtHB4ZhWtlRimAa82CYKH+/zHP2nGh1blcWqSysSjx3lvNcZKnfrTEXDu/JibJFLGrK4kXMeqKlIpfLRhIVnTeM6wsMiDSXW+WRahya2dwgISM81vVatkltal8RcXEhw9VRJ4Oq+pby3tRwTHNtStl5XOsR6sPnvBMN8HUE/L+CD7deyF2drI5WryMrYNqiccSWmJOQTnt4EKld96cq1VY0aFfD3u25oX6BkKof2cizmweDKSKNBp9Mq7yl+TBp0onWcB+sOhWRrZ5Fw3pW9/jY0rZv1MrOwJOK3czsnq7Wkef2e9MCTNT73MvSYk2txj+tGnwalqNOzB3iuwUdtIJwxl5Nr3Ynr1ocGylcrzr+NeLokXN3H0ve2Um6CI23L1iHj0PXR34CjF3OSte5xdOvTQBkxoWGPVoT8tJKT5TvQrpwSJNXrQrOwn1l53Jzu3SplvCcfjOvkkoZsYnLOAzXV6dqlNIe2Hic6842xx3H99WaB0lOi3062n6xGy6Zlc02vjWxyS+v6xIxGudjVSmJ+qklwVZRlaeM2ZPAgBvQbwew9pRm/cjnDaitZhEkLJs7rxYW5o3lj9gLmzRjNm27WvD2zGxndXhqYtmDEyGfYNGEysz+ezfTxM9hX/zX6Bq5nsUcE1nZjaXJgBqNnzmPerCnMOVaXF5vcfwWlwbxxc/BwYsp8t+LXB0uptsz8vzEkfzOM3nbjmDJjGo523Xlxug/NneYwqMq/TSr3tdeyG8Kg/va8f8SWDz4fh61pfcYtciD567GMnu7EbOW3HLUkjOGLXqeJkt8a1x/HIodkvh47mulOs5kxehRLwoaz6PUmyumpmP82ogjLclwPGcygAf0YMXsPpcevZPmw2kogY0z9cYtwSP6asaOn4zRbyWdGLSFs+CJeVw9shWmTnjS7eQKjdh0pr04waUTn+lc5YdqFbhYFSHfGuaShsrnngTYOH/Nq9P8x7g0nFsz/kGnv7aJG3y6Y5dB0QhfsyZzhmWlZbX/cH/v3j2D7weeMs1W2Orf0mtv3VHaJxrwxzfHAacp83CQxP7UK0EO7KCz566G9ANKiCbgcQLxZTerVrmxoJPmg5IhrXA1OwfzZ+tQyvy94Sonmpp8/iRXq0KCWeY5tDXTJ8cQmG1PevEyOyxQ1+e+hXaUlMSKIgODb6MrXUNKF5ZPtcVmXSNjVq4SmW1LPtjrl7ju36BLDuHo1lHTLethWL5ft6uhp/G1E0ZTfHtrzT0di2FWuhqZjWc+W6vcf2IUplzSUax6opP3YQD8C06pT/9mK2dpLParc0muuaV2XTHxsMsblzSkjifmpkbWHdgmu/gOFHlyJXBUsuBJCFH5wJUTx92iPvxFCCCGEEHmS4EoIIYQQohBJcCWEEEIIUYgkuBJCCCGEKET6Bu1Xr17lueeew8goxy67RSFSdrn+v+zvJ0P2txAFp9Pp0Gjk+luI/FLTzPXr16ldu/a9uwXVbvyXLl1qWEQ8TmfOnMHV1ZXFixcbpojH6eTJk3h4eLBgwQLDFCFEblJTUxk6dKg+3QhR1AUGBpKWlvNTNMzNzalUKf8d0j6qd999l++++y57Vwwff/wx6n/x+O3fv18fyKr/xeO3Z88eVqxYof8vhMib2hWDmZmZ/r8QRZ36AO2YmBjD2IPKlSv3RLqbUoMqtdBEumIQQgghxFOtTJncu3q+c+eO4dWTI8GVEEIIIZ5aZcuWNbx6OLUt1JMuhS14cKW7zd87v+T9SaMYMXI80+Z+y75riYaZioQ/cPl4LnPnGoZ5H7Hgi1W4nQy9+0DctL+38qX7JcOYQhvGqa2f8c6EVxn+igNvznNm/5XMhxHfo4v+h0M7fmDjtv2ciyzuz1xK4A+Xj+/tx7nz+GjBF6xyO0lozlXLBlr89zmz3VdZUOvPPuftqC9FPuliuHD0T0Izn6oqhMiZLpp/Du3gh43b2H8uUsl9hHiySpcunecNS0+69KpgwVXiWVbYd2Piz6n8b/T7zJ8ziX7P+rN8QHvGbrmhT1S6+NNs3ehL2aYtaNFCGZo3pk7ZIHZO7kL/r3xRY8eUc26s9LyiXyVxJ1g6sBdvHypF5/GzWfjxDF62DeLbYd2ZtOPm3YSa9OcyBvV6i53X4kn038Osl/qx+Hi8YW4xpIvn9NaN+JZtmrEfWzSncZ2yBO2cTJf+X+GbaxCu5daBtbhfUBbS3uLAWnfUlyJ/tLc2846jM2dSDROEEA+X9CfLBvXirZ3XiE/0Z8+sl+i3+DjFOGcWRZAaWKkBVm6SkpIMr56MAgRXKZz67HXWWX3B3vXvM6xzMxo2aUffCZ/h4T6JsE9m4xaVsaRRuXp0trPH3l4dRjDmzfls3DqBO86rOJqcsUyGRLznv8nOlivZs3oGQzo0oUHD53lxzCe4/TSV2/Onse6GEl5pb7DGaRtNvv6JFe9P5o33luG+uj17nVZysThfJhmVo15nO8N+tGfEmDeZv3ErE+44syr7jnzsdGlpxf6KNP7YKt6ZNIJuXd5lf3xG9w1CiJxoubHGiW1NvuanFe8z+Y33WOa+mvZ7nVhZrDPmp5tWqyU8PJy4uLhc77B72hS1dlf5D66Sf2PdDgsmffAiFve9y+Q5RxbN7UD52JwTlHH1WlRPuk1U1nNW/C+s8ajL1Hc6Ut4wKZPxs6/iZBeMy4+XSI3cz/6YPoxsfa9etVTzkfTXHeDXwBJWd2NcnVrVk7gdlczvHw1g5t4s0Xjaeb60ewO3B2tUc5CSyzpSOLFQ+Q02ujBjaD8G2g2id8eujFjqTWQx3eVlmw9l5twv2HxoNSOrFbzGXIgSRRfJ/v0x9BnZmrs5c6nmjOyv48CvgYYJoihRA6sbN24QFhaGv78/ly5d0j+cW73bLjIyksTERH37pKdRXu2uimzJlfbmKc6Vb02Hh550SvP8yCn0rWNsGL+PLppTzi6cadaV1qaGaYo0vzOcr9GW9hUNE7IxoXH7FoSdOUNC0C3Catpga2KYpTK2xrZWDAG3SlJjIh3Rp5xxOdOMrq2fISkqiPBsgVQKtwPDiMt32kjPdR3JkedY7/w3fVftxtNjDwcPrqST1zRmukcali1eNOUssbK2xtqqEmWkv1EhcqcL4lZYTWyyZ8xY29YiJuCWYVwUFZmB1f1BhtqnmdqNQUhIiL4DzIsXL6J2LB4cHEx0dDTJycl3O2IuyvIquVK3/0k2as93cJWeeIeksmaUu3vSSebgnBdp364d7ZSh7f9aM2lbxklXe2s7kztnTG/Xri2t2/Tknb+68t0qR2pn+URdQgLJZcwwy+FEZmRmhmlSInfi40krXea+L6tRdqaO+LhiXH2jvcX2yZ0N+1HZx63b0POdv+j63Socs+7IfNKlJZOkXJmoVydJyfkotk9Ppc6ACfS0NHxW6SZMnNmRv7b/mjEuhCi5dPHEp5WmzH1ZkUY5yeni4wxjoijIKbB6GDWQUpeLiorSd8555coVfcClvj80NLTIVieamppibJxDAY/Bkyy9yvcZWlOzFtVCb3Dz7j4txYsLD3Ls+HGOHz/KusGmBEZlzDSuNRxnb3W6Opzg5KlTeP3oRE+r7BtuYm2NZcgNbuTwOyXc8CetRi3KVzDHNDGe7O2LdcTFG1OhYjEuYjCuxXBnb8N+PM6Jk6c45fUjTj2tlOvDh9EpCcPw8gFp+DqPo1+/fvqh/4ythun3y7oOE2pY1872Wc/Uq0eVcLkqFaLE01TA3DSR+Ptu/NDFxWNc4aHVEeI/UJDAKidqVWFCQgIRERHZqhMDAgL009R5RaE6Ma/Sq6IZXFXuqQRHXmw//JBeUHUhHD12+b7gJ2+aWn3oWfZXdpzM0pVDJl0gO93+oW3fDphZ21Az4ALns5bopV3mn5tVsamTtUi6ZNFo0tFmPaDTQgnJsUGUCS2mbebQkSP6nvgPOr+mn5r7OtIIDw7K1pBdGxxCdIUqhjEhRIllYo1NzQAuZM+YufzPTaraPP7esEXeCiOwyolanRgbG6svzVI/459//tFXJwYFBXH79m39Zz7p6sSi1Kg9/3VLxnVxnDeAPz+Yxg8XswZDCfiuccIjorpy+i4g48a8MbcTh2e8w84bWRKo7jZ/LJvEsuQ3+XCwcgVk3puh9Q/z/e5QMk77OqL2r2Jv9SH0y6yyKnFMsLauxNXzlw39h+kI9XTjcLY7BvKS1zp0+Lr+wB+ZbbJ0oexZe4CafV80TBBClFzm9B5an8Pf777bJ5wuaj+r9lZnSD/LjAniP/M4A6ucqJ+lBlZqgKUGWmp1otqOSw3A1EBMDcgep6LUqL1AkYlZ50XsXFKPnaPa0aH/Kzg4vEL/Lj35wG8IS2e2ytIeK/8sXvo/dsyuwNqhrek86FUcxgyjV5suzPTty9otU2ikRmyaqgxf4oTZN4MZMG460x0H0f/TNGZ8PgarkhpbYUzd0dN43mMUvcdMZarjcCYfbsCAVgUJcfNaR1m69yrN1/b2TJwxgwmDBvK50TssG1vbMF8IUXJpqDp8CU5m3zB4wDimT3dkUP9PSZvxOWNKbsZcJPwXgdXDqFWFahtftepQrUJUqxLVKkW1alHtDkKtTlS/a2HJq+RKbSv2uAO8TI/44OYkwq9e5ma0MVVtG1K7Qu6NyPInkdDLfgTEmWBp8xzPVnxIkKBLIOSSH8HpVanfsCZmT2n6LdQHN6dEcfX8NRIsbGnybMUc2mLl4aHrSOG3Ge1wbu/DliHxXL4QQGrV52hkZVawiLwIkAc3C1EwBXtws46EkEv4BadTtX5Daj6tGXMxolbHqXf5qdVgaoCV+f9JV9PlV6lSpfSBkTqopU/qeF49rufEz88v1+O2du3alC9/f+dPhaMQHtxcWgmAmvO/F5oUUmClKku1Bi3063xoYKXSlKN6o5Y83/jpDawKnakFNs//j+aPGlip8lpHqao0eP4FmjyFgZUQ4nHTUK56I1o+31gCqyIis8fySpUqUaNGDerVq0ejRo2wsbGhZs2aWFhY6AOZRw1gCpsaCKrdPqjdP6jViWr7LbU6Ue0eQu0moiBdKBSVdleSEkQOjKnV9VX6PpelYzIhhBBPpdwCLisrqyIVcKklbGp1otqxqdrBqVoalbU6MT4+PsfqxKLS7kqCK5EDY+rZvcuYlgVpwyWEEOJpkRlwVaxYMVvAZWtrezfgUoMVjea/DxXU9lJqH1tq7/I3b97UN5ZXgy41+FL75FJLpNSgTEquhBBCCFGkqAGX2uYpM+CqW7cuDRs2vBtwVa5cucgEXGp1oVptqFYnXrt2TV+dqN6pmBs1SHsSnaBKcCWEEEKIHGUNuKpXr15kAy615Co/1X5PovRKf7fguXPn6N69u34HicdPbbyn3oKqFrmKx09NbGr9vexvIfJHPUmpjYnVkgsh8ks9blRqFwzqa3Uoig+CVh+TY2JS+E1e1DZi3t7e+sBTH1ydOHGCV199lY4dOxoWEY+T2iBPfV5T+/btDVPE46R2YKfeeaI+n1EIkTf1hKh2XTJgwADDFCEendr4XK2KU48r9X9h9m31qNS2WWppXGHy8fHB1dWVVq1aPWo/V+LfKNR+rkSepJ8rIQqmYP1cCVFw6rGV2QeXOqivn3TQpVZpqlWdhaUQ+rkSQgghhHg0pqammJubU61aNerUqaOvSqtfvz7W1tZUqVJFH9yr1XePU2BgoL5/rcIH/w+Xe1sIsMmCiQAAAABJRU5ErkJggg==;" parent="SxoRCARXd7dMq28AoM7H-39" vertex="1">
          <mxGeometry x="10" y="27" width="290.69" height="33" as="geometry" />
        </mxCell>
        <mxCell id="SxoRCARXd7dMq28AoM7H-58" style="edgeStyle=orthogonalEdgeStyle;rounded=0;orthogonalLoop=1;jettySize=auto;html=1;entryX=0.019;entryY=0.514;entryDx=0;entryDy=0;entryPerimeter=0;" parent="1" source="SxoRCARXd7dMq28AoM7H-42" target="SxoRCARXd7dMq28AoM7H-54" edge="1">
          <mxGeometry relative="1" as="geometry">
            <Array as="points">
              <mxPoint x="220" y="535" />
            </Array>
          </mxGeometry>
        </mxCell>
        <mxCell id="SxoRCARXd7dMq28AoM7H-42" value="MAX30102" style="whiteSpace=wrap;html=1;aspect=fixed;" parent="1" vertex="1">
          <mxGeometry x="120" y="480" width="80" height="80" as="geometry" />
        </mxCell>
        <mxCell id="SxoRCARXd7dMq28AoM7H-46" style="edgeStyle=orthogonalEdgeStyle;rounded=0;orthogonalLoop=1;jettySize=auto;html=1;entryX=0;entryY=0.188;entryDx=0;entryDy=0;entryPerimeter=0;" parent="1" source="SxoRCARXd7dMq28AoM7H-48" target="SxoRCARXd7dMq28AoM7H-42" edge="1">
          <mxGeometry relative="1" as="geometry" />
        </mxCell>
        <mxCell id="SxoRCARXd7dMq28AoM7H-43" value="3.3V LED" style="rounded=0;whiteSpace=wrap;html=1;" parent="1" vertex="1">
          <mxGeometry x="-70" y="480" width="80" height="30" as="geometry" />
        </mxCell>
        <mxCell id="SxoRCARXd7dMq28AoM7H-47" style="edgeStyle=orthogonalEdgeStyle;rounded=0;orthogonalLoop=1;jettySize=auto;html=1;entryX=0;entryY=0.688;entryDx=0;entryDy=0;entryPerimeter=0;" parent="1" source="SxoRCARXd7dMq28AoM7H-50" target="SxoRCARXd7dMq28AoM7H-42" edge="1">
          <mxGeometry relative="1" as="geometry" />
        </mxCell>
        <mxCell id="SxoRCARXd7dMq28AoM7H-44" value="1.8V Logic" style="rounded=0;whiteSpace=wrap;html=1;" parent="1" vertex="1">
          <mxGeometry x="-70" y="520" width="80" height="30" as="geometry" />
        </mxCell>
        <mxCell id="SxoRCARXd7dMq28AoM7H-49" value="" style="edgeStyle=orthogonalEdgeStyle;rounded=0;orthogonalLoop=1;jettySize=auto;html=1;entryX=0;entryY=0.188;entryDx=0;entryDy=0;entryPerimeter=0;" parent="1" source="SxoRCARXd7dMq28AoM7H-43" target="SxoRCARXd7dMq28AoM7H-48" edge="1">
          <mxGeometry relative="1" as="geometry">
            <mxPoint x="20" y="495" as="sourcePoint" />
            <mxPoint x="120" y="495" as="targetPoint" />
          </mxGeometry>
        </mxCell>
        <mxCell id="SxoRCARXd7dMq28AoM7H-48" value="Filter Caps" style="rounded=0;whiteSpace=wrap;html=1;" parent="1" vertex="1">
          <mxGeometry x="20" y="480" width="80" height="30" as="geometry" />
        </mxCell>
        <mxCell id="SxoRCARXd7dMq28AoM7H-51" value="" style="edgeStyle=orthogonalEdgeStyle;rounded=0;orthogonalLoop=1;jettySize=auto;html=1;entryX=0;entryY=0.688;entryDx=0;entryDy=0;entryPerimeter=0;" parent="1" source="SxoRCARXd7dMq28AoM7H-44" target="SxoRCARXd7dMq28AoM7H-50" edge="1">
          <mxGeometry relative="1" as="geometry">
            <mxPoint x="10" y="535" as="sourcePoint" />
            <mxPoint x="120" y="535" as="targetPoint" />
          </mxGeometry>
        </mxCell>
        <mxCell id="SxoRCARXd7dMq28AoM7H-50" value="Filter Caps" style="rounded=0;whiteSpace=wrap;html=1;" parent="1" vertex="1">
          <mxGeometry x="20" y="520" width="80" height="30" as="geometry" />
        </mxCell>
        <mxCell id="SxoRCARXd7dMq28AoM7H-55" style="edgeStyle=orthogonalEdgeStyle;rounded=0;orthogonalLoop=1;jettySize=auto;html=1;entryX=0.998;entryY=0.195;entryDx=0;entryDy=0;entryPerimeter=0;" parent="1" source="SxoRCARXd7dMq28AoM7H-53" target="SxoRCARXd7dMq28AoM7H-42" edge="1">
          <mxGeometry relative="1" as="geometry" />
        </mxCell>
        <mxCell id="SxoRCARXd7dMq28AoM7H-63" style="edgeStyle=orthogonalEdgeStyle;rounded=0;orthogonalLoop=1;jettySize=auto;html=1;entryX=0;entryY=0.5;entryDx=0;entryDy=0;" parent="1" source="SxoRCARXd7dMq28AoM7H-53" target="SxoRCARXd7dMq28AoM7H-60" edge="1">
          <mxGeometry relative="1" as="geometry" />
        </mxCell>
        <mxCell id="SxoRCARXd7dMq28AoM7H-53" value="SCL" style="rounded=0;whiteSpace=wrap;html=1;" parent="1" vertex="1">
          <mxGeometry x="220" y="480" width="80" height="30" as="geometry" />
        </mxCell>
        <mxCell id="SxoRCARXd7dMq28AoM7H-56" style="edgeStyle=orthogonalEdgeStyle;rounded=0;orthogonalLoop=1;jettySize=auto;html=1;entryX=1.01;entryY=0.695;entryDx=0;entryDy=0;entryPerimeter=0;" parent="1" source="SxoRCARXd7dMq28AoM7H-54" target="SxoRCARXd7dMq28AoM7H-42" edge="1">
          <mxGeometry relative="1" as="geometry" />
        </mxCell>
        <mxCell id="SxoRCARXd7dMq28AoM7H-62" style="edgeStyle=orthogonalEdgeStyle;rounded=0;orthogonalLoop=1;jettySize=auto;html=1;entryX=0;entryY=0.5;entryDx=0;entryDy=0;" parent="1" source="SxoRCARXd7dMq28AoM7H-54" target="SxoRCARXd7dMq28AoM7H-61" edge="1">
          <mxGeometry relative="1" as="geometry" />
        </mxCell>
        <mxCell id="SxoRCARXd7dMq28AoM7H-54" value="SDA" style="rounded=0;whiteSpace=wrap;html=1;" parent="1" vertex="1">
          <mxGeometry x="220" y="520" width="80" height="30" as="geometry" />
        </mxCell>
        <mxCell id="SxoRCARXd7dMq28AoM7H-64" style="edgeStyle=orthogonalEdgeStyle;rounded=0;orthogonalLoop=1;jettySize=auto;html=1;entryX=0.446;entryY=1.004;entryDx=0;entryDy=0;entryPerimeter=0;" parent="1" source="SxoRCARXd7dMq28AoM7H-60" target="SxoRCARXd7dMq28AoM7H-1" edge="1">
          <mxGeometry relative="1" as="geometry">
            <Array as="points">
              <mxPoint x="420" y="495" />
              <mxPoint x="420" y="470" />
            </Array>
          </mxGeometry>
        </mxCell>
        <mxCell id="SxoRCARXd7dMq28AoM7H-60" value="Pull Up Resistor" style="rounded=0;whiteSpace=wrap;html=1;" parent="1" vertex="1">
          <mxGeometry x="320" y="480" width="80" height="30" as="geometry" />
        </mxCell>
        <mxCell id="SxoRCARXd7dMq28AoM7H-65" style="edgeStyle=orthogonalEdgeStyle;rounded=0;orthogonalLoop=1;jettySize=auto;html=1;entryX=0.559;entryY=1.003;entryDx=0;entryDy=0;entryPerimeter=0;" parent="1" source="SxoRCARXd7dMq28AoM7H-61" target="SxoRCARXd7dMq28AoM7H-1" edge="1">
          <mxGeometry relative="1" as="geometry">
            <Array as="points">
              <mxPoint x="441" y="535" />
            </Array>
          </mxGeometry>
        </mxCell>
        <mxCell id="SxoRCARXd7dMq28AoM7H-61" value="Pull Up Resistor" style="rounded=0;whiteSpace=wrap;html=1;" parent="1" vertex="1">
          <mxGeometry x="320" y="520" width="80" height="30" as="geometry" />
        </mxCell>
        <mxCell id="SxoRCARXd7dMq28AoM7H-70" style="edgeStyle=orthogonalEdgeStyle;rounded=0;orthogonalLoop=1;jettySize=auto;html=1;entryX=0;entryY=0.5;entryDx=0;entryDy=0;" parent="1" source="SxoRCARXd7dMq28AoM7H-67" target="SxoRCARXd7dMq28AoM7H-44" edge="1">
          <mxGeometry relative="1" as="geometry" />
        </mxCell>
        <mxCell id="SxoRCARXd7dMq28AoM7H-98" style="edgeStyle=orthogonalEdgeStyle;rounded=0;orthogonalLoop=1;jettySize=auto;html=1;entryX=0;entryY=0.25;entryDx=0;entryDy=0;" parent="1" source="SxoRCARXd7dMq28AoM7H-67" target="SxoRCARXd7dMq28AoM7H-88" edge="1">
          <mxGeometry relative="1" as="geometry">
            <Array as="points">
              <mxPoint x="-210" y="535" />
              <mxPoint x="-210" y="78" />
            </Array>
          </mxGeometry>
        </mxCell>
        <mxCell id="SxoRCARXd7dMq28AoM7H-67" value="1.8V LDO" style="rounded=0;whiteSpace=wrap;html=1;" parent="1" vertex="1">
          <mxGeometry x="-170" y="520" width="80" height="30" as="geometry" />
        </mxCell>
        <mxCell id="SxoRCARXd7dMq28AoM7H-72" style="edgeStyle=orthogonalEdgeStyle;rounded=0;orthogonalLoop=1;jettySize=auto;html=1;entryX=0.223;entryY=-0.001;entryDx=0;entryDy=0;entryPerimeter=0;" parent="1" source="SxoRCARXd7dMq28AoM7H-71" target="SxoRCARXd7dMq28AoM7H-1" edge="1">
          <mxGeometry relative="1" as="geometry" />
        </mxCell>
        <mxCell id="SxoRCARXd7dMq28AoM7H-71" value="3 Buttons" style="rounded=0;whiteSpace=wrap;html=1;" parent="1" vertex="1">
          <mxGeometry x="340" y="190" width="80" height="30" as="geometry" />
        </mxCell>
        <mxCell id="SxoRCARXd7dMq28AoM7H-77" style="edgeStyle=orthogonalEdgeStyle;rounded=0;orthogonalLoop=1;jettySize=auto;html=1;entryX=0;entryY=0.5;entryDx=0;entryDy=0;" parent="1" source="SxoRCARXd7dMq28AoM7H-74" edge="1">
          <mxGeometry relative="1" as="geometry">
            <mxPoint x="240" y="105" as="targetPoint" />
          </mxGeometry>
        </mxCell>
        <mxCell id="SxoRCARXd7dMq28AoM7H-74" value="13V Boost Converter" style="rounded=0;whiteSpace=wrap;html=1;" parent="1" vertex="1">
          <mxGeometry x="120" y="90" width="80" height="30" as="geometry" />
        </mxCell>
        <mxCell id="SxoRCARXd7dMq28AoM7H-108" style="edgeStyle=orthogonalEdgeStyle;rounded=0;orthogonalLoop=1;jettySize=auto;html=1;entryX=0.722;entryY=0;entryDx=0;entryDy=0;entryPerimeter=0;" parent="1" source="SxoRCARXd7dMq28AoM7H-78" target="SxoRCARXd7dMq28AoM7H-1" edge="1">
          <mxGeometry relative="1" as="geometry">
            <Array as="points">
              <mxPoint x="470" y="65" />
            </Array>
          </mxGeometry>
        </mxCell>
        <mxCell id="SxoRCARXd7dMq28AoM7H-78" value="SCL" style="rounded=0;whiteSpace=wrap;html=1;" parent="1" vertex="1">
          <mxGeometry x="350" y="55" width="50" height="20" as="geometry" />
        </mxCell>
        <mxCell id="SxoRCARXd7dMq28AoM7H-107" style="edgeStyle=orthogonalEdgeStyle;rounded=0;orthogonalLoop=1;jettySize=auto;html=1;entryX=0.667;entryY=-0.002;entryDx=0;entryDy=0;entryPerimeter=0;" parent="1" source="SxoRCARXd7dMq28AoM7H-80" target="SxoRCARXd7dMq28AoM7H-1" edge="1">
          <mxGeometry relative="1" as="geometry">
            <Array as="points">
              <mxPoint x="460" y="85" />
            </Array>
          </mxGeometry>
        </mxCell>
        <mxCell id="SxoRCARXd7dMq28AoM7H-80" value="MOSI" style="rounded=0;whiteSpace=wrap;html=1;" parent="1" vertex="1">
          <mxGeometry x="350" y="75" width="50" height="20" as="geometry" />
        </mxCell>
        <mxCell id="SxoRCARXd7dMq28AoM7H-106" style="edgeStyle=orthogonalEdgeStyle;rounded=0;orthogonalLoop=1;jettySize=auto;html=1;" parent="1" source="SxoRCARXd7dMq28AoM7H-84" edge="1">
          <mxGeometry relative="1" as="geometry">
            <mxPoint x="450" y="270" as="targetPoint" />
            <Array as="points">
              <mxPoint x="450" y="105" />
              <mxPoint x="450" y="270" />
            </Array>
          </mxGeometry>
        </mxCell>
        <mxCell id="SxoRCARXd7dMq28AoM7H-84" value="CS" style="rounded=0;whiteSpace=wrap;html=1;" parent="1" vertex="1">
          <mxGeometry x="350" y="95" width="50" height="20" as="geometry" />
        </mxCell>
        <mxCell id="SxoRCARXd7dMq28AoM7H-105" style="edgeStyle=orthogonalEdgeStyle;rounded=0;orthogonalLoop=1;jettySize=auto;html=1;" parent="1" source="SxoRCARXd7dMq28AoM7H-86" target="SxoRCARXd7dMq28AoM7H-1" edge="1">
          <mxGeometry relative="1" as="geometry">
            <Array as="points">
              <mxPoint x="440" y="125" />
            </Array>
          </mxGeometry>
        </mxCell>
        <mxCell id="SxoRCARXd7dMq28AoM7H-86" value="DC" style="rounded=0;whiteSpace=wrap;html=1;" parent="1" vertex="1">
          <mxGeometry x="350" y="115" width="50" height="20" as="geometry" />
        </mxCell>
        <mxCell id="SxoRCARXd7dMq28AoM7H-90" style="edgeStyle=orthogonalEdgeStyle;rounded=0;orthogonalLoop=1;jettySize=auto;html=1;entryX=0;entryY=0.5;entryDx=0;entryDy=0;" parent="1" target="SxoRCARXd7dMq28AoM7H-78" edge="1">
          <mxGeometry relative="1" as="geometry">
            <mxPoint x="330" y="65.00000000000003" as="sourcePoint" />
            <Array as="points">
              <mxPoint x="340" y="65" />
              <mxPoint x="340" y="65" />
            </Array>
          </mxGeometry>
        </mxCell>
        <mxCell id="SxoRCARXd7dMq28AoM7H-91" style="edgeStyle=orthogonalEdgeStyle;rounded=0;orthogonalLoop=1;jettySize=auto;html=1;entryX=0;entryY=0.5;entryDx=0;entryDy=0;" parent="1" target="SxoRCARXd7dMq28AoM7H-80" edge="1">
          <mxGeometry relative="1" as="geometry">
            <mxPoint x="330" y="85" as="sourcePoint" />
            <Array as="points">
              <mxPoint x="340" y="85" />
              <mxPoint x="340" y="85" />
            </Array>
          </mxGeometry>
        </mxCell>
        <mxCell id="SxoRCARXd7dMq28AoM7H-92" style="edgeStyle=orthogonalEdgeStyle;rounded=0;orthogonalLoop=1;jettySize=auto;html=1;entryX=0;entryY=0.5;entryDx=0;entryDy=0;" parent="1" target="SxoRCARXd7dMq28AoM7H-84" edge="1">
          <mxGeometry relative="1" as="geometry">
            <mxPoint x="330" y="105" as="sourcePoint" />
            <Array as="points">
              <mxPoint x="340" y="105" />
              <mxPoint x="340" y="105" />
            </Array>
          </mxGeometry>
        </mxCell>
        <mxCell id="SxoRCARXd7dMq28AoM7H-93" style="edgeStyle=orthogonalEdgeStyle;rounded=0;orthogonalLoop=1;jettySize=auto;html=1;entryX=0;entryY=0.5;entryDx=0;entryDy=0;" parent="1" target="SxoRCARXd7dMq28AoM7H-86" edge="1">
          <mxGeometry relative="1" as="geometry">
            <mxPoint x="330" y="125" as="sourcePoint" />
            <Array as="points">
              <mxPoint x="340" y="125" />
              <mxPoint x="340" y="125" />
            </Array>
          </mxGeometry>
        </mxCell>
        <mxCell id="SxoRCARXd7dMq28AoM7H-95" style="edgeStyle=orthogonalEdgeStyle;rounded=0;orthogonalLoop=1;jettySize=auto;html=1;entryX=0;entryY=0.5;entryDx=0;entryDy=0;" parent="1" source="SxoRCARXd7dMq28AoM7H-88" target="SxoRCARXd7dMq28AoM7H-94" edge="1">
          <mxGeometry relative="1" as="geometry">
            <Array as="points">
              <mxPoint x="340" y="145" />
              <mxPoint x="340" y="145" />
            </Array>
          </mxGeometry>
        </mxCell>
        <mxCell id="SxoRCARXd7dMq28AoM7H-88" value="LCD" style="rounded=0;whiteSpace=wrap;html=1;" parent="1" vertex="1">
          <mxGeometry x="240" y="50" width="90" height="110" as="geometry" />
        </mxCell>
        <mxCell id="SxoRCARXd7dMq28AoM7H-104" style="edgeStyle=orthogonalEdgeStyle;rounded=0;orthogonalLoop=1;jettySize=auto;html=1;entryX=0.5;entryY=0;entryDx=0;entryDy=0;" parent="1" source="SxoRCARXd7dMq28AoM7H-94" target="SxoRCARXd7dMq28AoM7H-1" edge="1">
          <mxGeometry relative="1" as="geometry">
            <Array as="points">
              <mxPoint x="430" y="145" />
            </Array>
          </mxGeometry>
        </mxCell>
        <mxCell id="SxoRCARXd7dMq28AoM7H-94" value="RST" style="rounded=0;whiteSpace=wrap;html=1;" parent="1" vertex="1">
          <mxGeometry x="350" y="135" width="50" height="20" as="geometry" />
        </mxCell>
        <mxCell id="SxoRCARXd7dMq28AoM7H-100" style="edgeStyle=orthogonalEdgeStyle;rounded=0;orthogonalLoop=1;jettySize=auto;html=1;" parent="1" source="SxoRCARXd7dMq28AoM7H-99" target="SxoRCARXd7dMq28AoM7H-88" edge="1">
          <mxGeometry relative="1" as="geometry" />
        </mxCell>
        <mxCell id="SxoRCARXd7dMq28AoM7H-99" value="Hardware Config." style="rounded=0;whiteSpace=wrap;html=1;" parent="1" vertex="1">
          <mxGeometry x="245" y="-10" width="80" height="30" as="geometry" />
        </mxCell>
        <mxCell id="SxoRCARXd7dMq28AoM7H-101" value="Power LED" style="rounded=0;whiteSpace=wrap;html=1;" parent="1" vertex="1">
          <mxGeometry x="90" y="330" width="80" height="30" as="geometry" />
        </mxCell>
        <mxCell id="SxoRCARXd7dMq28AoM7H-121" style="edgeStyle=orthogonalEdgeStyle;rounded=0;orthogonalLoop=1;jettySize=auto;html=1;entryX=0;entryY=0.5;entryDx=0;entryDy=0;" parent="1" source="SxoRCARXd7dMq28AoM7H-109" target="SxoRCARXd7dMq28AoM7H-115" edge="1">
          <mxGeometry relative="1" as="geometry">
            <Array as="points">
              <mxPoint x="210" y="644" />
              <mxPoint x="210" y="644" />
            </Array>
          </mxGeometry>
        </mxCell>
        <mxCell id="SxoRCARXd7dMq28AoM7H-109" value="Battery Monitor" style="whiteSpace=wrap;html=1;aspect=fixed;" parent="1" vertex="1">
          <mxGeometry x="120" y="590" width="80" height="80" as="geometry" />
        </mxCell>
        <mxCell id="SxoRCARXd7dMq28AoM7H-111" style="edgeStyle=orthogonalEdgeStyle;rounded=0;orthogonalLoop=1;jettySize=auto;html=1;entryX=0;entryY=0.5;entryDx=0;entryDy=0;" parent="1" source="SxoRCARXd7dMq28AoM7H-112" target="SxoRCARXd7dMq28AoM7H-117" edge="1">
          <mxGeometry relative="1" as="geometry" />
        </mxCell>
        <mxCell id="SxoRCARXd7dMq28AoM7H-122" style="edgeStyle=orthogonalEdgeStyle;rounded=0;orthogonalLoop=1;jettySize=auto;html=1;entryX=1;entryY=0.175;entryDx=0;entryDy=0;entryPerimeter=0;" parent="1" source="SxoRCARXd7dMq28AoM7H-112" target="SxoRCARXd7dMq28AoM7H-109" edge="1">
          <mxGeometry relative="1" as="geometry" />
        </mxCell>
        <mxCell id="SxoRCARXd7dMq28AoM7H-112" value="SCL" style="rounded=0;whiteSpace=wrap;html=1;" parent="1" vertex="1">
          <mxGeometry x="220.03" y="589" width="80" height="30" as="geometry" />
        </mxCell>
        <mxCell id="SxoRCARXd7dMq28AoM7H-114" style="edgeStyle=orthogonalEdgeStyle;rounded=0;orthogonalLoop=1;jettySize=auto;html=1;entryX=0;entryY=0.5;entryDx=0;entryDy=0;" parent="1" source="SxoRCARXd7dMq28AoM7H-115" target="SxoRCARXd7dMq28AoM7H-119" edge="1">
          <mxGeometry relative="1" as="geometry" />
        </mxCell>
        <mxCell id="SxoRCARXd7dMq28AoM7H-123" style="edgeStyle=orthogonalEdgeStyle;rounded=0;orthogonalLoop=1;jettySize=auto;html=1;" parent="1" source="SxoRCARXd7dMq28AoM7H-115" edge="1">
          <mxGeometry relative="1" as="geometry">
            <mxPoint x="200" y="644" as="targetPoint" />
          </mxGeometry>
        </mxCell>
        <mxCell id="SxoRCARXd7dMq28AoM7H-115" value="SDA" style="rounded=0;whiteSpace=wrap;html=1;" parent="1" vertex="1">
          <mxGeometry x="220.03" y="629" width="80" height="30" as="geometry" />
        </mxCell>
        <mxCell id="SxoRCARXd7dMq28AoM7H-116" style="edgeStyle=orthogonalEdgeStyle;rounded=0;orthogonalLoop=1;jettySize=auto;html=1;entryX=0.667;entryY=1.001;entryDx=0;entryDy=0;entryPerimeter=0;" parent="1" source="SxoRCARXd7dMq28AoM7H-117" target="SxoRCARXd7dMq28AoM7H-1" edge="1">
          <mxGeometry relative="1" as="geometry">
            <mxPoint x="463" y="450" as="targetPoint" />
            <Array as="points">
              <mxPoint x="460" y="604" />
              <mxPoint x="460" y="450" />
            </Array>
          </mxGeometry>
        </mxCell>
        <mxCell id="SxoRCARXd7dMq28AoM7H-117" value="Pull Up Resistor" style="rounded=0;whiteSpace=wrap;html=1;" parent="1" vertex="1">
          <mxGeometry x="320.03" y="589" width="80" height="30" as="geometry" />
        </mxCell>
        <mxCell id="SxoRCARXd7dMq28AoM7H-118" style="edgeStyle=orthogonalEdgeStyle;rounded=0;orthogonalLoop=1;jettySize=auto;html=1;" parent="1" source="SxoRCARXd7dMq28AoM7H-119" edge="1">
          <mxGeometry relative="1" as="geometry">
            <mxPoint x="480" y="450" as="targetPoint" />
            <Array as="points">
              <mxPoint x="480" y="644" />
              <mxPoint x="480" y="450" />
            </Array>
          </mxGeometry>
        </mxCell>
        <mxCell id="SxoRCARXd7dMq28AoM7H-119" value="Pull Up Resistor" style="rounded=0;whiteSpace=wrap;html=1;" parent="1" vertex="1">
          <mxGeometry x="320.03" y="629" width="80" height="30" as="geometry" />
        </mxCell>
      </root>
    </mxGraphModel>
  </diagram>
</mxfile>
